<mxfile host="www.draw.io" modified="2019-12-16T16:28:38.644Z" agent="Mozilla/5.0 (Windows NT 10.0; Win64; x64) AppleWebKit/537.36 (KHTML, like Gecko) Chrome/78.0.3904.108 Safari/537.36" etag="qUlEjvCWYfftOZQ0upTp" version="12.4.2" type="github" pages="1">
  <diagram id="qoq7YZ_r1GSnPS3LyImX" name="Page-1">
    <mxGraphModel dx="4709" dy="6975" grid="1" gridSize="10" guides="1" tooltips="1" connect="1" arrows="1" fold="1" page="1" pageScale="1" pageWidth="3300" pageHeight="4681" math="0" shadow="0">
      <root>
        <mxCell id="0"/>
        <mxCell id="1" parent="0"/>
        <mxCell id="ye1H6EyIyC5CVGx2KqB--93" value="" style="shape=folder;fontStyle=1;spacingTop=10;tabWidth=57;tabHeight=18;tabPosition=left;html=1;" parent="1" vertex="1">
          <mxGeometry x="3010" y="127" width="630" height="413" as="geometry"/>
        </mxCell>
        <mxCell id="ye1H6EyIyC5CVGx2KqB--89" value="" style="shape=folder;fontStyle=1;spacingTop=10;tabWidth=57;tabHeight=18;tabPosition=left;html=1;" parent="1" vertex="1">
          <mxGeometry x="2470" y="90" width="250" height="110" as="geometry"/>
        </mxCell>
        <mxCell id="ye1H6EyIyC5CVGx2KqB--1" value="Entity" style="swimlane;fontStyle=0;childLayout=stackLayout;horizontal=1;startSize=26;fillColor=none;horizontalStack=0;resizeParent=1;resizeParentMax=0;resizeLast=0;collapsible=1;marginBottom=0;" parent="1" vertex="1">
          <mxGeometry x="1880" y="-181" width="170" height="320" as="geometry"/>
        </mxCell>
        <mxCell id="ye1H6EyIyC5CVGx2KqB--3" value="+ r : double &#xa;+ x : double &#xa;+ xr : double &#xa;+ y : double &#xa;+ yr : double &#xa;# alive : boolean " style="text;strokeColor=none;fillColor=none;align=left;verticalAlign=top;spacingLeft=4;spacingRight=4;overflow=hidden;rotatable=0;points=[[0,0.5],[1,0.5]];portConstraint=eastwest;" parent="ye1H6EyIyC5CVGx2KqB--1" vertex="1">
          <mxGeometry y="26" width="170" height="94" as="geometry"/>
        </mxCell>
        <mxCell id="H5ZQFPWd7AIUB-clA86X-6" value="" style="line;strokeWidth=1;fillColor=none;align=left;verticalAlign=middle;spacingTop=-1;spacingLeft=3;spacingRight=3;rotatable=0;labelPosition=right;points=[];portConstraint=eastwest;" parent="ye1H6EyIyC5CVGx2KqB--1" vertex="1">
          <mxGeometry y="120" width="170" height="10" as="geometry"/>
        </mxCell>
        <mxCell id="H5ZQFPWd7AIUB-clA86X-8" value="+ acceptsResource() &#xa;+ collides() &#xa;+ distance() &#xa;+ fight() &#xa;+ gatherResource() &#xa;+ getRandomTarget() &#xa;+ givesResource() &#xa;+ init() &#xa;+ render() &#xa;+ setPos() &#xa;+ submitResource() &#xa;+ tick() &#xa;+ updatePos() " style="text;strokeColor=none;fillColor=none;align=left;verticalAlign=top;spacingLeft=4;spacingRight=4;overflow=hidden;rotatable=0;points=[[0,0.5],[1,0.5]];portConstraint=eastwest;" parent="ye1H6EyIyC5CVGx2KqB--1" vertex="1">
          <mxGeometry y="130" width="170" height="190" as="geometry"/>
        </mxCell>
        <mxCell id="ye1H6EyIyC5CVGx2KqB--5" value="Bitmaps" style="swimlane;fontStyle=0;childLayout=stackLayout;horizontal=1;startSize=26;fillColor=none;horizontalStack=0;resizeParent=1;resizeParentMax=0;resizeLast=0;collapsible=1;marginBottom=0;" parent="1" vertex="1">
          <mxGeometry x="3260" y="640" width="260" height="316" as="geometry"/>
        </mxCell>
        <mxCell id="ye1H6EyIyC5CVGx2KqB--6" value="+ carriedResources : BufferedImage[] &#xa;+ delete : BufferedImage &#xa;+ farmPlots : BufferedImage[] &#xa;+ help : BufferedImage &#xa;+ houses : BufferedImage[][] &#xa;+ infoPuffs : BufferedImage[] &#xa;+ island : BufferedImage&#xa;+ logo : BufferedImage &#xa;+ peons : BufferedImage[][] &#xa;+ rocks : BufferedImage[] &#xa;+ smoke : BufferedImage[] &#xa;+ soundButtons : BufferedImage[] &#xa;+ towerBot : BufferedImage &#xa;+ towerMid : BufferedImage &#xa;+ towerTop : BufferedImage &#xa;+ trees : BufferedImage[] &#xa;+ wonScreen : BufferedImage " style="text;strokeColor=none;fillColor=none;align=left;verticalAlign=top;spacingLeft=4;spacingRight=4;overflow=hidden;rotatable=0;points=[[0,0.5],[1,0.5]];portConstraint=eastwest;" parent="ye1H6EyIyC5CVGx2KqB--5" vertex="1">
          <mxGeometry y="26" width="260" height="254" as="geometry"/>
        </mxCell>
        <mxCell id="H5ZQFPWd7AIUB-clA86X-1" value="" style="line;strokeWidth=1;fillColor=none;align=left;verticalAlign=middle;spacingTop=-1;spacingLeft=3;spacingRight=3;rotatable=0;labelPosition=right;points=[];portConstraint=eastwest;" parent="ye1H6EyIyC5CVGx2KqB--5" vertex="1">
          <mxGeometry y="280" width="260" height="10" as="geometry"/>
        </mxCell>
        <mxCell id="H5ZQFPWd7AIUB-clA86X-5" value="+ loadAll() " style="text;strokeColor=none;fillColor=none;align=left;verticalAlign=top;spacingLeft=4;spacingRight=4;overflow=hidden;rotatable=0;points=[[0,0.5],[1,0.5]];portConstraint=eastwest;" parent="ye1H6EyIyC5CVGx2KqB--5" vertex="1">
          <mxGeometry y="290" width="260" height="26" as="geometry"/>
        </mxCell>
        <mxCell id="ye1H6EyIyC5CVGx2KqB--25" value="FarmPlot" style="swimlane;fontStyle=0;childLayout=stackLayout;horizontal=1;startSize=26;fillColor=none;horizontalStack=0;resizeParent=1;resizeParentMax=0;resizeLast=0;collapsible=1;marginBottom=0;" parent="1" vertex="1">
          <mxGeometry x="1680" y="-690" width="180" height="160" as="geometry"/>
        </mxCell>
        <mxCell id="H5ZQFPWd7AIUB-clA86X-10" value="{static} + GROW_SPEED : int&#xa;- age : int&#xa;- stamina : int" style="text;strokeColor=none;fillColor=none;align=left;verticalAlign=top;spacingLeft=4;spacingRight=4;overflow=hidden;rotatable=0;points=[[0,0.5],[1,0.5]];portConstraint=eastwest;" parent="ye1H6EyIyC5CVGx2KqB--25" vertex="1">
          <mxGeometry y="26" width="180" height="54" as="geometry"/>
        </mxCell>
        <mxCell id="H5ZQFPWd7AIUB-clA86X-9" value="" style="line;strokeWidth=1;fillColor=none;align=left;verticalAlign=middle;spacingTop=-1;spacingLeft=3;spacingRight=3;rotatable=0;labelPosition=right;points=[];portConstraint=eastwest;" parent="ye1H6EyIyC5CVGx2KqB--25" vertex="1">
          <mxGeometry y="80" width="180" height="10" as="geometry"/>
        </mxCell>
        <mxCell id="ye1H6EyIyC5CVGx2KqB--26" value="+ gatherResource()&#xa;+ givesResource()&#xa;+ render()&#xa;+ tick()" style="text;strokeColor=none;fillColor=none;align=left;verticalAlign=top;spacingLeft=4;spacingRight=4;overflow=hidden;rotatable=0;points=[[0,0.5],[1,0.5]];portConstraint=eastwest;" parent="ye1H6EyIyC5CVGx2KqB--25" vertex="1">
          <mxGeometry y="90" width="180" height="70" as="geometry"/>
        </mxCell>
        <mxCell id="ye1H6EyIyC5CVGx2KqB--36" value="House" style="swimlane;fontStyle=0;childLayout=stackLayout;horizontal=1;startSize=26;fillColor=none;horizontalStack=0;resizeParent=1;resizeParentMax=0;resizeLast=0;collapsible=1;marginBottom=0;" parent="1" vertex="1">
          <mxGeometry x="1480" y="-222" width="270" height="350" as="geometry"/>
        </mxCell>
        <mxCell id="ye1H6EyIyC5CVGx2KqB--37" value="{static} + FOOD_PER_PEON : int&#xa;{static} + WOOD_PER_WARRIOR : int&#xa;{static} - POPULATION_PER_RESIDENCE : int&#xa;{static} - WARRIORS_PER_BARRACKS : int&#xa;- animFrame : int&#xa;- buildDuration : int&#xa;- buildTime : int&#xa;- hp : int&#xa;- maxHp : int" style="text;strokeColor=none;fillColor=none;align=left;verticalAlign=top;spacingLeft=4;spacingRight=4;overflow=hidden;rotatable=0;points=[[0,0.5],[1,0.5]];portConstraint=eastwest;" parent="ye1H6EyIyC5CVGx2KqB--36" vertex="1">
          <mxGeometry y="26" width="270" height="134" as="geometry"/>
        </mxCell>
        <mxCell id="H5ZQFPWd7AIUB-clA86X-12" value="" style="line;strokeWidth=1;fillColor=none;align=left;verticalAlign=middle;spacingTop=-1;spacingLeft=3;spacingRight=3;rotatable=0;labelPosition=right;points=[];portConstraint=eastwest;" parent="ye1H6EyIyC5CVGx2KqB--36" vertex="1">
          <mxGeometry y="160" width="270" height="10" as="geometry"/>
        </mxCell>
        <mxCell id="H5ZQFPWd7AIUB-clA86X-13" value="+ acceptsResource()&#xa;+ build()&#xa;+ complete()&#xa;+ destroy()&#xa;+ die()&#xa;+ fight()&#xa;+ puff()&#xa;+ render()&#xa;+ sell()&#xa;+ submitResource()&#xa;+ tick()&#xa;- getRandomPeon()" style="text;strokeColor=none;fillColor=none;align=left;verticalAlign=top;spacingLeft=4;spacingRight=4;overflow=hidden;rotatable=0;points=[[0,0.5],[1,0.5]];portConstraint=eastwest;" parent="ye1H6EyIyC5CVGx2KqB--36" vertex="1">
          <mxGeometry y="170" width="270" height="180" as="geometry"/>
        </mxCell>
        <mxCell id="ye1H6EyIyC5CVGx2KqB--38" value="HouseType" style="swimlane;fontStyle=0;childLayout=stackLayout;horizontal=1;startSize=26;fillColor=none;horizontalStack=0;resizeParent=1;resizeParentMax=0;resizeLast=0;collapsible=1;marginBottom=0;" parent="1" vertex="1">
          <mxGeometry x="830" y="88" width="220" height="306" as="geometry"/>
        </mxCell>
        <mxCell id="ye1H6EyIyC5CVGx2KqB--39" value="{static} + BARRACKS : HouseType&#xa;{static} + FARM : HouseType&#xa;{static} + GUARDPOST : HouseType&#xa;{static} + MASON : HouseType&#xa;{static} + PLANTER : HouseType&#xa;{static} + RESIDENCE : HouseType&#xa;{static} + WINDMILL : HouseType&#xa;{static} + WOODCUTTER : HouseType&#xa;+ acceptResource : int&#xa;+ food : int&#xa;{static} + houseTypes : HouseType[]&#xa;+ image : int&#xa;+ name : String&#xa;+ radius : int&#xa;+ rock : int&#xa;+ wood : int&#xa;{static} - id : int" style="text;strokeColor=none;fillColor=none;align=left;verticalAlign=top;spacingLeft=4;spacingRight=4;overflow=hidden;rotatable=0;points=[[0,0.5],[1,0.5]];portConstraint=eastwest;" parent="ye1H6EyIyC5CVGx2KqB--38" vertex="1">
          <mxGeometry y="26" width="220" height="244" as="geometry"/>
        </mxCell>
        <mxCell id="H5ZQFPWd7AIUB-clA86X-14" value="" style="line;strokeWidth=1;fillColor=none;align=left;verticalAlign=middle;spacingTop=-1;spacingLeft=3;spacingRight=3;rotatable=0;labelPosition=right;points=[];portConstraint=eastwest;" parent="ye1H6EyIyC5CVGx2KqB--38" vertex="1">
          <mxGeometry y="270" width="220" height="10" as="geometry"/>
        </mxCell>
        <mxCell id="H5ZQFPWd7AIUB-clA86X-15" value="- setAcceptsResource()&#xa;" style="text;strokeColor=none;fillColor=none;align=left;verticalAlign=top;spacingLeft=4;spacingRight=4;overflow=hidden;rotatable=0;points=[[0,0.5],[1,0.5]];portConstraint=eastwest;" parent="ye1H6EyIyC5CVGx2KqB--38" vertex="1">
          <mxGeometry y="280" width="220" height="26" as="geometry"/>
        </mxCell>
        <mxCell id="ye1H6EyIyC5CVGx2KqB--40" value="InfoPuff" style="swimlane;fontStyle=0;childLayout=stackLayout;horizontal=1;startSize=26;fillColor=none;horizontalStack=0;resizeParent=1;resizeParentMax=0;resizeLast=0;collapsible=1;marginBottom=0;" parent="1" vertex="1">
          <mxGeometry x="1910" y="-508" width="140" height="140" as="geometry"/>
        </mxCell>
        <mxCell id="ye1H6EyIyC5CVGx2KqB--41" value="+ life : int&#xa;+ lifeTime : int&#xa;- image : int" style="text;strokeColor=none;fillColor=none;align=left;verticalAlign=top;spacingLeft=4;spacingRight=4;overflow=hidden;rotatable=0;points=[[0,0.5],[1,0.5]];portConstraint=eastwest;" parent="ye1H6EyIyC5CVGx2KqB--40" vertex="1">
          <mxGeometry y="26" width="140" height="54" as="geometry"/>
        </mxCell>
        <mxCell id="H5ZQFPWd7AIUB-clA86X-17" value="" style="line;strokeWidth=1;fillColor=none;align=left;verticalAlign=middle;spacingTop=-1;spacingLeft=3;spacingRight=3;rotatable=0;labelPosition=right;points=[];portConstraint=eastwest;" parent="ye1H6EyIyC5CVGx2KqB--40" vertex="1">
          <mxGeometry y="80" width="140" height="10" as="geometry"/>
        </mxCell>
        <mxCell id="H5ZQFPWd7AIUB-clA86X-7" value="+ render()&#xa;+ tick()&#xa;+ updatePos() " style="text;strokeColor=none;fillColor=none;align=left;verticalAlign=top;spacingLeft=4;spacingRight=4;overflow=hidden;rotatable=0;points=[[0,0.5],[1,0.5]];portConstraint=eastwest;" parent="ye1H6EyIyC5CVGx2KqB--40" vertex="1">
          <mxGeometry y="90" width="140" height="50" as="geometry"/>
        </mxCell>
        <mxCell id="ye1H6EyIyC5CVGx2KqB--42" value="Island" style="swimlane;fontStyle=0;childLayout=stackLayout;horizontal=1;startSize=26;fillColor=none;horizontalStack=0;resizeParent=1;resizeParentMax=0;resizeLast=0;collapsible=1;marginBottom=0;" parent="1" vertex="1">
          <mxGeometry x="2600" y="1880" width="170" height="340" as="geometry"/>
        </mxCell>
        <mxCell id="ye1H6EyIyC5CVGx2KqB--43" value="+ image : BufferedImage&#xa;+ monsterPopulation : int&#xa;+ population : int&#xa;+ populationCap : int&#xa;+ rot : double&#xa;+ warriorPopulation : int&#xa;+ warriorPopulationCap : int&#xa;~ entities : List&lt;Entity&gt;&#xa;- pixels : int[]" style="text;strokeColor=none;fillColor=none;align=left;verticalAlign=top;spacingLeft=4;spacingRight=4;overflow=hidden;rotatable=0;points=[[0,0.5],[1,0.5]];portConstraint=eastwest;" parent="ye1H6EyIyC5CVGx2KqB--42" vertex="1">
          <mxGeometry y="26" width="170" height="134" as="geometry"/>
        </mxCell>
        <mxCell id="ruju_pkgRnl55fsP5Uep-8" value="" style="line;strokeWidth=1;fillColor=none;align=left;verticalAlign=middle;spacingTop=-1;spacingLeft=3;spacingRight=3;rotatable=0;labelPosition=right;points=[];portConstraint=eastwest;" vertex="1" parent="ye1H6EyIyC5CVGx2KqB--42">
          <mxGeometry y="160" width="170" height="10" as="geometry"/>
        </mxCell>
        <mxCell id="ruju_pkgRnl55fsP5Uep-5" value="+ addEntity()&#xa;+ canPlaceHouse()&#xa;+ getEntityAt()&#xa;+ getEntityAtMouse()&#xa;+ isFree()&#xa;+ isOnGround()&#xa;+ placeHouse()&#xa;+ tick()&#xa;+ win()&#xa;- addForrest()&#xa;- addRocks()" style="text;strokeColor=none;fillColor=none;align=left;verticalAlign=top;spacingLeft=4;spacingRight=4;overflow=hidden;rotatable=0;points=[[0,0.5],[1,0.5]];portConstraint=eastwest;" vertex="1" parent="ye1H6EyIyC5CVGx2KqB--42">
          <mxGeometry y="170" width="170" height="170" as="geometry"/>
        </mxCell>
        <mxCell id="ye1H6EyIyC5CVGx2KqB--44" value="Job" style="swimlane;fontStyle=0;childLayout=stackLayout;horizontal=1;startSize=26;fillColor=none;horizontalStack=0;resizeParent=1;resizeParentMax=0;resizeLast=0;collapsible=1;marginBottom=0;" parent="1" vertex="1">
          <mxGeometry x="1400" y="930" width="150" height="270" as="geometry"/>
        </mxCell>
        <mxCell id="ye1H6EyIyC5CVGx2KqB--45" value="+ boreTime : int&#xa;+ targetDistance : double&#xa;+ xTarget : double&#xa;+ yTarget : double&#xa;# bonusRadius : int" style="text;strokeColor=none;fillColor=none;align=left;verticalAlign=top;spacingLeft=4;spacingRight=4;overflow=hidden;rotatable=0;points=[[0,0.5],[1,0.5]];portConstraint=eastwest;" parent="ye1H6EyIyC5CVGx2KqB--44" vertex="1">
          <mxGeometry y="26" width="150" height="84" as="geometry"/>
        </mxCell>
        <mxCell id="ruju_pkgRnl55fsP5Uep-10" value="" style="line;strokeWidth=1;fillColor=none;align=left;verticalAlign=middle;spacingTop=-1;spacingLeft=3;spacingRight=3;rotatable=0;labelPosition=right;points=[];portConstraint=eastwest;" vertex="1" parent="ye1H6EyIyC5CVGx2KqB--44">
          <mxGeometry y="110" width="150" height="10" as="geometry"/>
        </mxCell>
        <mxCell id="ruju_pkgRnl55fsP5Uep-11" value="+ arrived()&#xa;+ cantReach()&#xa;+ collide()&#xa;+ getCarried()&#xa;+ hasTarget()&#xa;+ init()&#xa;+ isValidTarget()&#xa;+ setTarget()&#xa;+ tick()&#xa;# tryFindTarget()" style="text;strokeColor=none;fillColor=none;align=left;verticalAlign=top;spacingLeft=4;spacingRight=4;overflow=hidden;rotatable=0;points=[[0,0.5],[1,0.5]];portConstraint=eastwest;" vertex="1" parent="ye1H6EyIyC5CVGx2KqB--44">
          <mxGeometry y="120" width="150" height="150" as="geometry"/>
        </mxCell>
        <mxCell id="ye1H6EyIyC5CVGx2KqB--46" value="Monster" style="swimlane;fontStyle=0;childLayout=stackLayout;horizontal=1;startSize=26;fillColor=none;horizontalStack=0;resizeParent=1;resizeParentMax=0;resizeLast=0;collapsible=1;marginBottom=0;" parent="1" vertex="1">
          <mxGeometry x="1630" y="560" width="150" height="220" as="geometry"/>
        </mxCell>
        <mxCell id="ye1H6EyIyC5CVGx2KqB--47" value="+ moveTick : double&#xa;+ rot : double&#xa;{static} - animDirs : int[]&#xa;{static} - animSteps : int[]&#xa;- hp : int&#xa;- maxHp : int&#xa;- wanderTime : int" style="text;strokeColor=none;fillColor=none;align=left;verticalAlign=top;spacingLeft=4;spacingRight=4;overflow=hidden;rotatable=0;points=[[0,0.5],[1,0.5]];portConstraint=eastwest;" parent="ye1H6EyIyC5CVGx2KqB--46" vertex="1">
          <mxGeometry y="26" width="150" height="104" as="geometry"/>
        </mxCell>
        <mxCell id="ruju_pkgRnl55fsP5Uep-12" value="" style="line;strokeWidth=1;fillColor=none;align=left;verticalAlign=middle;spacingTop=-1;spacingLeft=3;spacingRight=3;rotatable=0;labelPosition=right;points=[];portConstraint=eastwest;" vertex="1" parent="ye1H6EyIyC5CVGx2KqB--46">
          <mxGeometry y="130" width="150" height="10" as="geometry"/>
        </mxCell>
        <mxCell id="ruju_pkgRnl55fsP5Uep-13" value="+ die()&#xa;+ fight()&#xa;+ init()&#xa;+ render()&#xa;+ tick()" style="text;strokeColor=none;fillColor=none;align=left;verticalAlign=top;spacingLeft=4;spacingRight=4;overflow=hidden;rotatable=0;points=[[0,0.5],[1,0.5]];portConstraint=eastwest;" vertex="1" parent="ye1H6EyIyC5CVGx2KqB--46">
          <mxGeometry y="140" width="150" height="80" as="geometry"/>
        </mxCell>
        <mxCell id="ye1H6EyIyC5CVGx2KqB--48" value="Peon" style="swimlane;fontStyle=0;childLayout=stackLayout;horizontal=1;startSize=26;fillColor=none;horizontalStack=0;resizeParent=1;resizeParentMax=0;resizeLast=0;collapsible=1;marginBottom=0;" parent="1" vertex="1">
          <mxGeometry x="2365" y="-525.12" width="140" height="350" as="geometry"/>
        </mxCell>
        <mxCell id="ye1H6EyIyC5CVGx2KqB--49" value="+ moveTick : double&#xa;+ rot : double&#xa;+ type : int&#xa;# xTarget : double&#xa;# yTarget : double&#xa;{static} - animDirs : int[]&#xa;{static} - animSteps : int[]&#xa;- hp : int&#xa;- level : int&#xa;- maxHp : int&#xa;- nextLevel : int&#xa;- wanderTime : int&#xa;- xp : int" style="text;strokeColor=none;fillColor=none;align=left;verticalAlign=top;spacingLeft=4;spacingRight=4;overflow=hidden;rotatable=0;points=[[0,0.5],[1,0.5]];portConstraint=eastwest;" parent="ye1H6EyIyC5CVGx2KqB--48" vertex="1">
          <mxGeometry y="26" width="140" height="194" as="geometry"/>
        </mxCell>
        <mxCell id="ruju_pkgRnl55fsP5Uep-15" value="" style="line;strokeWidth=1;fillColor=none;align=left;verticalAlign=middle;spacingTop=-1;spacingLeft=3;spacingRight=3;rotatable=0;labelPosition=right;points=[];portConstraint=eastwest;" vertex="1" parent="ye1H6EyIyC5CVGx2KqB--48">
          <mxGeometry y="220" width="140" height="10" as="geometry"/>
        </mxCell>
        <mxCell id="ruju_pkgRnl55fsP5Uep-14" value="+ addXp()&#xa;+ die()&#xa;+ fight()&#xa;+ init()&#xa;+ render()&#xa;+ setJob()&#xa;+ setType()&#xa;+ tick()" style="text;strokeColor=none;fillColor=none;align=left;verticalAlign=top;spacingLeft=4;spacingRight=4;overflow=hidden;rotatable=0;points=[[0,0.5],[1,0.5]];portConstraint=eastwest;" vertex="1" parent="ye1H6EyIyC5CVGx2KqB--48">
          <mxGeometry y="230" width="140" height="120" as="geometry"/>
        </mxCell>
        <mxCell id="ye1H6EyIyC5CVGx2KqB--50" value="Puff" style="swimlane;fontStyle=0;childLayout=stackLayout;horizontal=1;startSize=26;fillColor=none;horizontalStack=0;resizeParent=1;resizeParentMax=0;resizeLast=0;collapsible=1;marginBottom=0;" parent="1" vertex="1">
          <mxGeometry x="1430" y="-577.1199999999999" width="140" height="130" as="geometry"/>
        </mxCell>
        <mxCell id="ye1H6EyIyC5CVGx2KqB--51" value="+ life : int&#xa;+ lifeTime : int" style="text;strokeColor=none;fillColor=none;align=left;verticalAlign=top;spacingLeft=4;spacingRight=4;overflow=hidden;rotatable=0;points=[[0,0.5],[1,0.5]];portConstraint=eastwest;" parent="ye1H6EyIyC5CVGx2KqB--50" vertex="1">
          <mxGeometry y="26" width="140" height="34" as="geometry"/>
        </mxCell>
        <mxCell id="ruju_pkgRnl55fsP5Uep-17" value="" style="line;strokeWidth=1;fillColor=none;align=left;verticalAlign=middle;spacingTop=-1;spacingLeft=3;spacingRight=3;rotatable=0;labelPosition=right;points=[];portConstraint=eastwest;" vertex="1" parent="ye1H6EyIyC5CVGx2KqB--50">
          <mxGeometry y="60" width="140" height="10" as="geometry"/>
        </mxCell>
        <mxCell id="ruju_pkgRnl55fsP5Uep-18" value="+ render()&#xa;+ tick()&#xa;+ updatePos()" style="text;strokeColor=none;fillColor=none;align=left;verticalAlign=top;spacingLeft=4;spacingRight=4;overflow=hidden;rotatable=0;points=[[0,0.5],[1,0.5]];portConstraint=eastwest;" vertex="1" parent="ye1H6EyIyC5CVGx2KqB--50">
          <mxGeometry y="70" width="140" height="60" as="geometry"/>
        </mxCell>
        <mxCell id="ye1H6EyIyC5CVGx2KqB--52" value="Resources" style="swimlane;fontStyle=0;childLayout=stackLayout;horizontal=1;startSize=26;fillColor=none;horizontalStack=0;resizeParent=1;resizeParentMax=0;resizeLast=0;collapsible=1;marginBottom=0;" parent="1" vertex="1">
          <mxGeometry x="1720" y="1190" width="160" height="190" as="geometry"/>
        </mxCell>
        <mxCell id="ye1H6EyIyC5CVGx2KqB--53" value="{static} + FOOD : int&#xa;{static} + ROCK : int&#xa;{static} + WOOD : int&#xa;+ food : int&#xa;+ rock : int&#xa;+ wood : int" style="text;strokeColor=none;fillColor=none;align=left;verticalAlign=top;spacingLeft=4;spacingRight=4;overflow=hidden;rotatable=0;points=[[0,0.5],[1,0.5]];portConstraint=eastwest;" parent="ye1H6EyIyC5CVGx2KqB--52" vertex="1">
          <mxGeometry y="26" width="160" height="94" as="geometry"/>
        </mxCell>
        <mxCell id="ruju_pkgRnl55fsP5Uep-19" value="" style="line;strokeWidth=1;fillColor=none;align=left;verticalAlign=middle;spacingTop=-1;spacingLeft=3;spacingRight=3;rotatable=0;labelPosition=right;points=[];portConstraint=eastwest;" vertex="1" parent="ye1H6EyIyC5CVGx2KqB--52">
          <mxGeometry y="120" width="160" height="10" as="geometry"/>
        </mxCell>
        <mxCell id="ruju_pkgRnl55fsP5Uep-20" value="+ add()&#xa;+ canAfford()&#xa;+ charge()" style="text;strokeColor=none;fillColor=none;align=left;verticalAlign=top;spacingLeft=4;spacingRight=4;overflow=hidden;rotatable=0;points=[[0,0.5],[1,0.5]];portConstraint=eastwest;" vertex="1" parent="ye1H6EyIyC5CVGx2KqB--52">
          <mxGeometry y="130" width="160" height="60" as="geometry"/>
        </mxCell>
        <mxCell id="ye1H6EyIyC5CVGx2KqB--54" value="Rock" style="swimlane;fontStyle=0;childLayout=stackLayout;horizontal=1;startSize=26;fillColor=none;horizontalStack=0;resizeParent=1;resizeParentMax=0;resizeLast=0;collapsible=1;marginBottom=0;" parent="1" vertex="1">
          <mxGeometry x="2210" y="1220" width="140" height="160" as="geometry"/>
        </mxCell>
        <mxCell id="ye1H6EyIyC5CVGx2KqB--55" value="- life : int&#xa;- stamina : int&#xa;- type : int" style="text;strokeColor=none;fillColor=none;align=left;verticalAlign=top;spacingLeft=4;spacingRight=4;overflow=hidden;rotatable=0;points=[[0,0.5],[1,0.5]];portConstraint=eastwest;" parent="ye1H6EyIyC5CVGx2KqB--54" vertex="1">
          <mxGeometry y="26" width="140" height="54" as="geometry"/>
        </mxCell>
        <mxCell id="ruju_pkgRnl55fsP5Uep-21" value="" style="line;strokeWidth=1;fillColor=none;align=left;verticalAlign=middle;spacingTop=-1;spacingLeft=3;spacingRight=3;rotatable=0;labelPosition=right;points=[];portConstraint=eastwest;" vertex="1" parent="ye1H6EyIyC5CVGx2KqB--54">
          <mxGeometry y="80" width="140" height="10" as="geometry"/>
        </mxCell>
        <mxCell id="ruju_pkgRnl55fsP5Uep-22" value="+ gatherResource()&#xa;+ givesResource()&#xa;+ render()&#xa;+ tick()" style="text;strokeColor=none;fillColor=none;align=left;verticalAlign=top;spacingLeft=4;spacingRight=4;overflow=hidden;rotatable=0;points=[[0,0.5],[1,0.5]];portConstraint=eastwest;" vertex="1" parent="ye1H6EyIyC5CVGx2KqB--54">
          <mxGeometry y="90" width="140" height="70" as="geometry"/>
        </mxCell>
        <mxCell id="ye1H6EyIyC5CVGx2KqB--56" value="Sounds" style="swimlane;fontStyle=0;childLayout=stackLayout;horizontal=1;startSize=26;fillColor=none;horizontalStack=0;resizeParent=1;resizeParentMax=0;resizeLast=0;collapsible=1;marginBottom=0;" parent="1" vertex="1">
          <mxGeometry x="2460" y="394" width="170" height="220" as="geometry"/>
        </mxCell>
        <mxCell id="ye1H6EyIyC5CVGx2KqB--57" value="{static} + SAMPLE_RATE : int&#xa;{static} + instance : Sounds&#xa;- dataLine : SourceDataLine&#xa;{static} - isMute : boolean&#xa;- soundAvailable : boolean&#xa;- sounds : List&lt;Sound&gt;" style="text;strokeColor=none;fillColor=none;align=left;verticalAlign=top;spacingLeft=4;spacingRight=4;overflow=hidden;rotatable=0;points=[[0,0.5],[1,0.5]];portConstraint=eastwest;" parent="ye1H6EyIyC5CVGx2KqB--56" vertex="1">
          <mxGeometry y="26" width="170" height="94" as="geometry"/>
        </mxCell>
        <mxCell id="ruju_pkgRnl55fsP5Uep-29" value="" style="line;strokeWidth=1;fillColor=none;align=left;verticalAlign=middle;spacingTop=-1;spacingLeft=3;spacingRight=3;rotatable=0;labelPosition=right;points=[];portConstraint=eastwest;" vertex="1" parent="ye1H6EyIyC5CVGx2KqB--56">
          <mxGeometry y="120" width="170" height="10" as="geometry"/>
        </mxCell>
        <mxCell id="ruju_pkgRnl55fsP5Uep-30" value="{static} + isMute()&#xa;{static} + play()&#xa;+ run()&#xa;{static} + setMute()&#xa;- addSound()" style="text;strokeColor=none;fillColor=none;align=left;verticalAlign=top;spacingLeft=4;spacingRight=4;overflow=hidden;rotatable=0;points=[[0,0.5],[1,0.5]];portConstraint=eastwest;" vertex="1" parent="ye1H6EyIyC5CVGx2KqB--56">
          <mxGeometry y="130" width="170" height="90" as="geometry"/>
        </mxCell>
        <mxCell id="ye1H6EyIyC5CVGx2KqB--58" value="Sound&#xa;&lt;&lt;Abstract&gt;&gt;" style="swimlane;fontStyle=2;childLayout=stackLayout;horizontal=1;startSize=26;fillColor=none;horizontalStack=0;resizeParent=1;resizeParentMax=0;resizeLast=0;collapsible=1;marginBottom=0;" parent="1" vertex="1">
          <mxGeometry x="1270" y="390" width="140" height="140" as="geometry"/>
        </mxCell>
        <mxCell id="ye1H6EyIyC5CVGx2KqB--59" value="# duration : int&#xa;# p : int" style="text;strokeColor=none;fillColor=none;align=left;verticalAlign=top;spacingLeft=4;spacingRight=4;overflow=hidden;rotatable=0;points=[[0,0.5],[1,0.5]];portConstraint=eastwest;" parent="ye1H6EyIyC5CVGx2KqB--58" vertex="1">
          <mxGeometry y="26" width="140" height="44" as="geometry"/>
        </mxCell>
        <mxCell id="ruju_pkgRnl55fsP5Uep-32" value="" style="line;strokeWidth=1;fillColor=none;align=left;verticalAlign=middle;spacingTop=-1;spacingLeft=3;spacingRight=3;rotatable=0;labelPosition=right;points=[];portConstraint=eastwest;" vertex="1" parent="ye1H6EyIyC5CVGx2KqB--58">
          <mxGeometry y="70" width="140" height="10" as="geometry"/>
        </mxCell>
        <mxCell id="ruju_pkgRnl55fsP5Uep-33" value="+ read()&#xa;# Sound()&#xa;{abstract} # fill()" style="text;strokeColor=none;fillColor=none;align=left;verticalAlign=top;spacingLeft=4;spacingRight=4;overflow=hidden;rotatable=0;points=[[0,0.5],[1,0.5]];portConstraint=eastwest;" vertex="1" parent="ye1H6EyIyC5CVGx2KqB--58">
          <mxGeometry y="80" width="140" height="60" as="geometry"/>
        </mxCell>
        <mxCell id="ye1H6EyIyC5CVGx2KqB--60" value="TargetFilter" style="swimlane;fontStyle=0;childLayout=stackLayout;horizontal=1;startSize=26;fillColor=none;horizontalStack=0;resizeParent=1;resizeParentMax=0;resizeLast=0;collapsible=1;marginBottom=0;" parent="1" vertex="1">
          <mxGeometry x="1110" y="458" width="140" height="62" as="geometry"/>
        </mxCell>
        <mxCell id="ruju_pkgRnl55fsP5Uep-34" value="" style="line;strokeWidth=1;fillColor=none;align=left;verticalAlign=middle;spacingTop=-1;spacingLeft=3;spacingRight=3;rotatable=0;labelPosition=right;points=[];portConstraint=eastwest;" vertex="1" parent="ye1H6EyIyC5CVGx2KqB--60">
          <mxGeometry y="26" width="140" height="10" as="geometry"/>
        </mxCell>
        <mxCell id="ye1H6EyIyC5CVGx2KqB--61" value="+ accepts()&#xa;" style="text;strokeColor=none;fillColor=none;align=left;verticalAlign=top;spacingLeft=4;spacingRight=4;overflow=hidden;rotatable=0;points=[[0,0.5],[1,0.5]];portConstraint=eastwest;" parent="ye1H6EyIyC5CVGx2KqB--60" vertex="1">
          <mxGeometry y="36" width="140" height="26" as="geometry"/>
        </mxCell>
        <mxCell id="ye1H6EyIyC5CVGx2KqB--62" value="Tower" style="swimlane;fontStyle=0;childLayout=stackLayout;horizontal=1;startSize=26;fillColor=none;horizontalStack=0;resizeParent=1;resizeParentMax=0;resizeLast=0;collapsible=1;marginBottom=0;" parent="1" vertex="1">
          <mxGeometry x="2000" y="1370" width="150" height="170" as="geometry"/>
        </mxCell>
        <mxCell id="ye1H6EyIyC5CVGx2KqB--63" value="- h : int&#xa;- minMonsters : int&#xa;- stamina : int&#xa;- staminaPerLevel : int" style="text;strokeColor=none;fillColor=none;align=left;verticalAlign=top;spacingLeft=4;spacingRight=4;overflow=hidden;rotatable=0;points=[[0,0.5],[1,0.5]];portConstraint=eastwest;" parent="ye1H6EyIyC5CVGx2KqB--62" vertex="1">
          <mxGeometry y="26" width="150" height="64" as="geometry"/>
        </mxCell>
        <mxCell id="ruju_pkgRnl55fsP5Uep-35" value="" style="line;strokeWidth=1;fillColor=none;align=left;verticalAlign=middle;spacingTop=-1;spacingLeft=3;spacingRight=3;rotatable=0;labelPosition=right;points=[];portConstraint=eastwest;" vertex="1" parent="ye1H6EyIyC5CVGx2KqB--62">
          <mxGeometry y="90" width="150" height="10" as="geometry"/>
        </mxCell>
        <mxCell id="ruju_pkgRnl55fsP5Uep-36" value="+ gatherResource()&#xa;+ givesResource()&#xa;+ render()&#xa;+ tick()" style="text;strokeColor=none;fillColor=none;align=left;verticalAlign=top;spacingLeft=4;spacingRight=4;overflow=hidden;rotatable=0;points=[[0,0.5],[1,0.5]];portConstraint=eastwest;" vertex="1" parent="ye1H6EyIyC5CVGx2KqB--62">
          <mxGeometry y="100" width="150" height="70" as="geometry"/>
        </mxCell>
        <mxCell id="ye1H6EyIyC5CVGx2KqB--64" value="TowerApplet" style="swimlane;fontStyle=0;childLayout=stackLayout;horizontal=1;startSize=26;fillColor=none;horizontalStack=0;resizeParent=1;resizeParentMax=0;resizeLast=0;collapsible=1;marginBottom=0;" parent="1" vertex="1">
          <mxGeometry x="500" y="268" width="140" height="52" as="geometry"/>
        </mxCell>
        <mxCell id="ye1H6EyIyC5CVGx2KqB--65" value="+ field: type" style="text;strokeColor=none;fillColor=none;align=left;verticalAlign=top;spacingLeft=4;spacingRight=4;overflow=hidden;rotatable=0;points=[[0,0.5],[1,0.5]];portConstraint=eastwest;" parent="ye1H6EyIyC5CVGx2KqB--64" vertex="1">
          <mxGeometry y="26" width="140" height="26" as="geometry"/>
        </mxCell>
        <mxCell id="ye1H6EyIyC5CVGx2KqB--66" value="TowerComponent" style="swimlane;fontStyle=0;childLayout=stackLayout;horizontal=1;startSize=26;fillColor=none;horizontalStack=0;resizeParent=1;resizeParentMax=0;resizeLast=0;collapsible=1;marginBottom=0;" parent="1" vertex="1">
          <mxGeometry x="2850" y="910" width="150" height="470" as="geometry"/>
        </mxCell>
        <mxCell id="ye1H6EyIyC5CVGx2KqB--67" value="- gameTime : int&#xa;- height : int&#xa;- image : VolatileImage&#xa;- paused : boolean&#xa;- running : boolean&#xa;- scrolling : boolean&#xa;- selectedHouseType : int&#xa;- thread : Thread&#xa;- titleScreen : boolean&#xa;- width : int&#xa;- winScore : int&#xa;- won : boolean" style="text;strokeColor=none;fillColor=none;align=left;verticalAlign=top;spacingLeft=4;spacingRight=4;overflow=hidden;rotatable=0;points=[[0,0.5],[1,0.5]];portConstraint=eastwest;" parent="ye1H6EyIyC5CVGx2KqB--66" vertex="1">
          <mxGeometry y="26" width="150" height="174" as="geometry"/>
        </mxCell>
        <mxCell id="ruju_pkgRnl55fsP5Uep-37" value="" style="line;strokeWidth=1;fillColor=none;align=left;verticalAlign=middle;spacingTop=-1;spacingLeft=3;spacingRight=3;rotatable=0;labelPosition=right;points=[];portConstraint=eastwest;" vertex="1" parent="ye1H6EyIyC5CVGx2KqB--66">
          <mxGeometry y="200" width="150" height="10" as="geometry"/>
        </mxCell>
        <mxCell id="ruju_pkgRnl55fsP5Uep-38" value="{static} + main()&#xa;+ mouseDragged()&#xa;+ mouseExited()&#xa;+ mouseMoved()&#xa;+ mousePressed()&#xa;+ mouseReleased()&#xa;+ paint()&#xa;+ pause()&#xa;+ run()&#xa;+ start()&#xa;+ stop()&#xa;+ unpause()&#xa;+ update()&#xa;+ win()&#xa;- init()&#xa;- render()&#xa;- renderGame()&#xa;- tick()" style="text;strokeColor=none;fillColor=none;align=left;verticalAlign=top;spacingLeft=4;spacingRight=4;overflow=hidden;rotatable=0;points=[[0,0.5],[1,0.5]];portConstraint=eastwest;" vertex="1" parent="ye1H6EyIyC5CVGx2KqB--66">
          <mxGeometry y="210" width="150" height="260" as="geometry"/>
        </mxCell>
        <mxCell id="ye1H6EyIyC5CVGx2KqB--68" value="Tree" style="swimlane;fontStyle=0;childLayout=stackLayout;horizontal=1;startSize=26;fillColor=none;horizontalStack=0;resizeParent=1;resizeParentMax=0;resizeLast=0;collapsible=1;marginBottom=0;" parent="1" vertex="1">
          <mxGeometry x="1970" y="660" width="200" height="190" as="geometry"/>
        </mxCell>
        <mxCell id="ye1H6EyIyC5CVGx2KqB--69" value="{static} + GROW_SPEED : int&#xa;{static} + SPREAD_INTERVAL : int&#xa;- age : int&#xa;- spreadDelay : int&#xa;- stamina : int" style="text;strokeColor=none;fillColor=none;align=left;verticalAlign=top;spacingLeft=4;spacingRight=4;overflow=hidden;rotatable=0;points=[[0,0.5],[1,0.5]];portConstraint=eastwest;" parent="ye1H6EyIyC5CVGx2KqB--68" vertex="1">
          <mxGeometry y="26" width="200" height="84" as="geometry"/>
        </mxCell>
        <mxCell id="ruju_pkgRnl55fsP5Uep-40" value="" style="line;strokeWidth=1;fillColor=none;align=left;verticalAlign=middle;spacingTop=-1;spacingLeft=3;spacingRight=3;rotatable=0;labelPosition=right;points=[];portConstraint=eastwest;" vertex="1" parent="ye1H6EyIyC5CVGx2KqB--68">
          <mxGeometry y="110" width="200" height="10" as="geometry"/>
        </mxCell>
        <mxCell id="ruju_pkgRnl55fsP5Uep-41" value="+ gatherResource()&#xa;+ givesResource()&#xa;+ render()&#xa;+ tick()" style="text;strokeColor=none;fillColor=none;align=left;verticalAlign=top;spacingLeft=4;spacingRight=4;overflow=hidden;rotatable=0;points=[[0,0.5],[1,0.5]];portConstraint=eastwest;" vertex="1" parent="ye1H6EyIyC5CVGx2KqB--68">
          <mxGeometry y="120" width="200" height="70" as="geometry"/>
        </mxCell>
        <mxCell id="ye1H6EyIyC5CVGx2KqB--70" value="Vec" style="swimlane;fontStyle=0;childLayout=stackLayout;horizontal=1;startSize=26;fillColor=none;horizontalStack=0;resizeParent=1;resizeParentMax=0;resizeLast=0;collapsible=1;marginBottom=0;" parent="1" vertex="1">
          <mxGeometry x="470" y="370" width="140" height="52" as="geometry"/>
        </mxCell>
        <mxCell id="ye1H6EyIyC5CVGx2KqB--71" value="+ field: type" style="text;strokeColor=none;fillColor=none;align=left;verticalAlign=top;spacingLeft=4;spacingRight=4;overflow=hidden;rotatable=0;points=[[0,0.5],[1,0.5]];portConstraint=eastwest;" parent="ye1H6EyIyC5CVGx2KqB--70" vertex="1">
          <mxGeometry y="26" width="140" height="26" as="geometry"/>
        </mxCell>
        <mxCell id="ye1H6EyIyC5CVGx2KqB--72" value="&amp;nbsp;" style="endArrow=block;endSize=16;endFill=0;html=1;" parent="1" source="ye1H6EyIyC5CVGx2KqB--25" target="ye1H6EyIyC5CVGx2KqB--1" edge="1">
          <mxGeometry x="1" y="768" width="160" relative="1" as="geometry">
            <mxPoint x="1620" y="420" as="sourcePoint"/>
            <mxPoint x="1780" y="420" as="targetPoint"/>
            <mxPoint x="110" y="8" as="offset"/>
          </mxGeometry>
        </mxCell>
        <mxCell id="ye1H6EyIyC5CVGx2KqB--73" value="&amp;nbsp;" style="endArrow=block;endSize=16;endFill=0;html=1;" parent="1" source="ye1H6EyIyC5CVGx2KqB--36" target="ye1H6EyIyC5CVGx2KqB--1" edge="1">
          <mxGeometry x="1" y="768" width="160" relative="1" as="geometry">
            <mxPoint x="1649" y="340" as="sourcePoint"/>
            <mxPoint x="1931" y="152" as="targetPoint"/>
            <mxPoint x="110" y="8" as="offset"/>
          </mxGeometry>
        </mxCell>
        <mxCell id="ye1H6EyIyC5CVGx2KqB--76" value="&amp;nbsp;" style="endArrow=block;endSize=16;endFill=0;html=1;" parent="1" source="ye1H6EyIyC5CVGx2KqB--46" target="ye1H6EyIyC5CVGx2KqB--1" edge="1">
          <mxGeometry x="1" y="768" width="160" relative="1" as="geometry">
            <mxPoint x="1782.75" y="340" as="sourcePoint"/>
            <mxPoint x="1990" y="220" as="targetPoint"/>
            <mxPoint x="110" y="8" as="offset"/>
          </mxGeometry>
        </mxCell>
        <mxCell id="ye1H6EyIyC5CVGx2KqB--77" value="&amp;nbsp;" style="endArrow=block;endSize=16;endFill=0;html=1;" parent="1" source="ye1H6EyIyC5CVGx2KqB--40" target="ye1H6EyIyC5CVGx2KqB--1" edge="1">
          <mxGeometry x="1" y="768" width="160" relative="1" as="geometry">
            <mxPoint x="1792.75" y="350" as="sourcePoint"/>
            <mxPoint x="1957.25" y="162" as="targetPoint"/>
            <mxPoint x="110" y="8" as="offset"/>
          </mxGeometry>
        </mxCell>
        <mxCell id="ye1H6EyIyC5CVGx2KqB--78" value="&amp;nbsp;" style="endArrow=block;endSize=16;endFill=0;html=1;" parent="1" source="ye1H6EyIyC5CVGx2KqB--48" target="ye1H6EyIyC5CVGx2KqB--1" edge="1">
          <mxGeometry x="1" y="768" width="160" relative="1" as="geometry">
            <mxPoint x="1802.75" y="360" as="sourcePoint"/>
            <mxPoint x="1967.25" y="172" as="targetPoint"/>
            <mxPoint x="110" y="8" as="offset"/>
          </mxGeometry>
        </mxCell>
        <mxCell id="ye1H6EyIyC5CVGx2KqB--79" value="&amp;nbsp;" style="endArrow=block;endSize=16;endFill=0;html=1;" parent="1" source="ye1H6EyIyC5CVGx2KqB--50" target="ye1H6EyIyC5CVGx2KqB--1" edge="1">
          <mxGeometry x="1" y="768" width="160" relative="1" as="geometry">
            <mxPoint x="1812.75" y="370" as="sourcePoint"/>
            <mxPoint x="1977.25" y="182" as="targetPoint"/>
            <mxPoint x="110" y="8" as="offset"/>
          </mxGeometry>
        </mxCell>
        <mxCell id="ye1H6EyIyC5CVGx2KqB--80" value="&amp;nbsp;" style="endArrow=block;endSize=16;endFill=0;html=1;strokeWidth=1;" parent="1" source="ye1H6EyIyC5CVGx2KqB--54" target="ye1H6EyIyC5CVGx2KqB--1" edge="1">
          <mxGeometry x="1" y="768" width="160" relative="1" as="geometry">
            <mxPoint x="2007.2631578947367" y="480" as="sourcePoint"/>
            <mxPoint x="1972.7368421052633" y="152" as="targetPoint"/>
            <mxPoint x="110" y="8" as="offset"/>
          </mxGeometry>
        </mxCell>
        <mxCell id="ye1H6EyIyC5CVGx2KqB--82" value="" style="endArrow=block;dashed=1;endFill=0;endSize=12;html=1;" parent="1" source="ye1H6EyIyC5CVGx2KqB--56" target="ye1H6EyIyC5CVGx2KqB--81" edge="1">
          <mxGeometry width="160" relative="1" as="geometry">
            <mxPoint x="2340" y="570" as="sourcePoint"/>
            <mxPoint x="2500" y="570" as="targetPoint"/>
          </mxGeometry>
        </mxCell>
        <mxCell id="ye1H6EyIyC5CVGx2KqB--83" value="&amp;nbsp;" style="endArrow=block;endSize=16;endFill=0;html=1;" parent="1" source="ye1H6EyIyC5CVGx2KqB--62" target="ye1H6EyIyC5CVGx2KqB--1" edge="1">
          <mxGeometry x="1" y="768" width="160" relative="1" as="geometry">
            <mxPoint x="2007.2631578947367" y="480" as="sourcePoint"/>
            <mxPoint x="1972.7368421052633" y="152" as="targetPoint"/>
            <mxPoint x="110" y="8" as="offset"/>
          </mxGeometry>
        </mxCell>
        <mxCell id="ye1H6EyIyC5CVGx2KqB--84" value="" style="endArrow=block;dashed=1;endFill=0;endSize=12;html=1;" parent="1" source="ye1H6EyIyC5CVGx2KqB--66" target="ye1H6EyIyC5CVGx2KqB--81" edge="1">
          <mxGeometry width="160" relative="1" as="geometry">
            <mxPoint x="2517.9651162790697" y="468" as="sourcePoint"/>
            <mxPoint x="2648.110465116279" y="347" as="targetPoint"/>
          </mxGeometry>
        </mxCell>
        <mxCell id="ye1H6EyIyC5CVGx2KqB--85" value="&amp;nbsp;" style="endArrow=block;endSize=16;endFill=0;html=1;" parent="1" source="ye1H6EyIyC5CVGx2KqB--68" target="ye1H6EyIyC5CVGx2KqB--1" edge="1">
          <mxGeometry x="1" y="768" width="160" relative="1" as="geometry">
            <mxPoint x="1782.75" y="340" as="sourcePoint"/>
            <mxPoint x="1947.25" y="152" as="targetPoint"/>
            <mxPoint x="110" y="8" as="offset"/>
          </mxGeometry>
        </mxCell>
        <mxCell id="ye1H6EyIyC5CVGx2KqB--86" value="«interface»&lt;br&gt;&lt;b&gt;MouseListener&lt;/b&gt;" style="html=1;" parent="1" vertex="1">
          <mxGeometry x="3060" y="235" width="110" height="50" as="geometry"/>
        </mxCell>
        <mxCell id="ye1H6EyIyC5CVGx2KqB--87" value="«interface»&lt;br&gt;&lt;b&gt;MouseMotionListener&lt;/b&gt;" style="html=1;" parent="1" vertex="1">
          <mxGeometry x="3040" y="177" width="150" height="50" as="geometry"/>
        </mxCell>
        <mxCell id="ye1H6EyIyC5CVGx2KqB--91" value="java.lang" style="text;html=1;align=center;verticalAlign=middle;resizable=0;points=[];;autosize=1;" parent="1" vertex="1">
          <mxGeometry x="2470" y="90" width="60" height="20" as="geometry"/>
        </mxCell>
        <mxCell id="ye1H6EyIyC5CVGx2KqB--81" value="«interface»&lt;br&gt;&lt;b&gt;Runnable&lt;/b&gt;" style="html=1;" parent="1" vertex="1">
          <mxGeometry x="2480" y="127" width="110" height="53" as="geometry"/>
        </mxCell>
        <mxCell id="ye1H6EyIyC5CVGx2KqB--94" value="Java awt" style="text;html=1;align=center;verticalAlign=middle;resizable=0;points=[];;autosize=1;" parent="1" vertex="1">
          <mxGeometry x="3010" y="127" width="60" height="20" as="geometry"/>
        </mxCell>
        <mxCell id="ye1H6EyIyC5CVGx2KqB--95" value="" style="endArrow=block;dashed=1;endFill=0;endSize=12;html=1;" parent="1" source="ye1H6EyIyC5CVGx2KqB--66" target="ye1H6EyIyC5CVGx2KqB--86" edge="1">
          <mxGeometry width="160" relative="1" as="geometry">
            <mxPoint x="2773.2808398950133" y="520" as="sourcePoint"/>
            <mxPoint x="2561.0761154855645" y="190" as="targetPoint"/>
          </mxGeometry>
        </mxCell>
        <mxCell id="ye1H6EyIyC5CVGx2KqB--96" value="" style="endArrow=block;dashed=1;endFill=0;endSize=12;html=1;" parent="1" source="ye1H6EyIyC5CVGx2KqB--66" target="ye1H6EyIyC5CVGx2KqB--87" edge="1">
          <mxGeometry width="160" relative="1" as="geometry">
            <mxPoint x="2783.2808398950133" y="530" as="sourcePoint"/>
            <mxPoint x="2571.0761154855645" y="200" as="targetPoint"/>
          </mxGeometry>
        </mxCell>
        <mxCell id="ye1H6EyIyC5CVGx2KqB--97" value="Canvas" style="swimlane;fontStyle=0;childLayout=stackLayout;horizontal=1;startSize=26;fillColor=none;horizontalStack=0;resizeParent=1;resizeParentMax=0;resizeLast=0;collapsible=1;marginBottom=0;" parent="1" vertex="1">
          <mxGeometry x="3030" y="344" width="140" height="52" as="geometry"/>
        </mxCell>
        <mxCell id="ye1H6EyIyC5CVGx2KqB--98" value="+ field: type" style="text;strokeColor=none;fillColor=none;align=left;verticalAlign=top;spacingLeft=4;spacingRight=4;overflow=hidden;rotatable=0;points=[[0,0.5],[1,0.5]];portConstraint=eastwest;" parent="ye1H6EyIyC5CVGx2KqB--97" vertex="1">
          <mxGeometry y="26" width="140" height="26" as="geometry"/>
        </mxCell>
        <mxCell id="ye1H6EyIyC5CVGx2KqB--99" value="&amp;nbsp;" style="endArrow=block;endSize=16;endFill=0;html=1;" parent="1" source="ye1H6EyIyC5CVGx2KqB--66" target="ye1H6EyIyC5CVGx2KqB--97" edge="1">
          <mxGeometry x="1" y="768" width="160" relative="1" as="geometry">
            <mxPoint x="3201.8382352941176" y="570" as="sourcePoint"/>
            <mxPoint x="3048.1617647058824" y="350" as="targetPoint"/>
            <mxPoint x="110" y="8" as="offset"/>
          </mxGeometry>
        </mxCell>
        <mxCell id="ye1H6EyIyC5CVGx2KqB--100" value="GraphicsDevice" style="swimlane;fontStyle=0;childLayout=stackLayout;horizontal=1;startSize=26;fillColor=none;horizontalStack=0;resizeParent=1;resizeParentMax=0;resizeLast=0;collapsible=1;marginBottom=0;" parent="1" vertex="1">
          <mxGeometry x="3325" y="256" width="140" height="52" as="geometry"/>
        </mxCell>
        <mxCell id="ye1H6EyIyC5CVGx2KqB--101" value="+ field: type" style="text;strokeColor=none;fillColor=none;align=left;verticalAlign=top;spacingLeft=4;spacingRight=4;overflow=hidden;rotatable=0;points=[[0,0.5],[1,0.5]];portConstraint=eastwest;" parent="ye1H6EyIyC5CVGx2KqB--100" vertex="1">
          <mxGeometry y="26" width="140" height="26" as="geometry"/>
        </mxCell>
        <mxCell id="ye1H6EyIyC5CVGx2KqB--102" value="GraphicsConfiguration" style="swimlane;fontStyle=0;childLayout=stackLayout;horizontal=1;startSize=26;fillColor=none;horizontalStack=0;resizeParent=1;resizeParentMax=0;resizeLast=0;collapsible=1;marginBottom=0;" parent="1" vertex="1">
          <mxGeometry x="3325" y="173" width="140" height="52" as="geometry"/>
        </mxCell>
        <mxCell id="ye1H6EyIyC5CVGx2KqB--103" value="+ field: type" style="text;strokeColor=none;fillColor=none;align=left;verticalAlign=top;spacingLeft=4;spacingRight=4;overflow=hidden;rotatable=0;points=[[0,0.5],[1,0.5]];portConstraint=eastwest;" parent="ye1H6EyIyC5CVGx2KqB--102" vertex="1">
          <mxGeometry y="26" width="140" height="26" as="geometry"/>
        </mxCell>
        <mxCell id="ye1H6EyIyC5CVGx2KqB--104" value="GraphicsEnvironment" style="swimlane;fontStyle=0;childLayout=stackLayout;horizontal=1;startSize=26;fillColor=none;horizontalStack=0;resizeParent=1;resizeParentMax=0;resizeLast=0;collapsible=1;marginBottom=0;" parent="1" vertex="1">
          <mxGeometry x="3485" y="256" width="140" height="52" as="geometry"/>
        </mxCell>
        <mxCell id="ye1H6EyIyC5CVGx2KqB--105" value="+ field: type" style="text;strokeColor=none;fillColor=none;align=left;verticalAlign=top;spacingLeft=4;spacingRight=4;overflow=hidden;rotatable=0;points=[[0,0.5],[1,0.5]];portConstraint=eastwest;" parent="ye1H6EyIyC5CVGx2KqB--104" vertex="1">
          <mxGeometry y="26" width="140" height="26" as="geometry"/>
        </mxCell>
        <mxCell id="ye1H6EyIyC5CVGx2KqB--106" value="Transparency" style="swimlane;fontStyle=0;childLayout=stackLayout;horizontal=1;startSize=26;fillColor=none;horizontalStack=0;resizeParent=1;resizeParentMax=0;resizeLast=0;collapsible=1;marginBottom=0;" parent="1" vertex="1">
          <mxGeometry x="3405" y="333" width="140" height="52" as="geometry"/>
        </mxCell>
        <mxCell id="ye1H6EyIyC5CVGx2KqB--107" value="+ field: type" style="text;strokeColor=none;fillColor=none;align=left;verticalAlign=top;spacingLeft=4;spacingRight=4;overflow=hidden;rotatable=0;points=[[0,0.5],[1,0.5]];portConstraint=eastwest;" parent="ye1H6EyIyC5CVGx2KqB--106" vertex="1">
          <mxGeometry y="26" width="140" height="26" as="geometry"/>
        </mxCell>
        <mxCell id="ye1H6EyIyC5CVGx2KqB--108" value="BufferedImage" style="swimlane;fontStyle=0;childLayout=stackLayout;horizontal=1;startSize=26;fillColor=#f8cecc;horizontalStack=0;resizeParent=1;resizeParentMax=0;resizeLast=0;collapsible=1;marginBottom=0;strokeColor=#b85450;" parent="1" vertex="1">
          <mxGeometry x="3485" y="173" width="140" height="52" as="geometry"/>
        </mxCell>
        <mxCell id="ye1H6EyIyC5CVGx2KqB--109" value="+ field: type" style="text;strokeColor=none;fillColor=none;align=left;verticalAlign=top;spacingLeft=4;spacingRight=4;overflow=hidden;rotatable=0;points=[[0,0.5],[1,0.5]];portConstraint=eastwest;" parent="ye1H6EyIyC5CVGx2KqB--108" vertex="1">
          <mxGeometry y="26" width="140" height="26" as="geometry"/>
        </mxCell>
        <mxCell id="ye1H6EyIyC5CVGx2KqB--111" value="" style="endArrow=open;endFill=1;endSize=12;html=1;" parent="1" source="L9FAodCtd-xEPd-ugHDf-14" target="ye1H6EyIyC5CVGx2KqB--100" edge="1">
          <mxGeometry width="160" relative="1" as="geometry">
            <mxPoint x="3325" y="581.5" as="sourcePoint"/>
            <mxPoint x="3485" y="581.5" as="targetPoint"/>
          </mxGeometry>
        </mxCell>
        <mxCell id="ye1H6EyIyC5CVGx2KqB--112" value="" style="endArrow=open;endFill=1;endSize=12;html=1;" parent="1" source="ye1H6EyIyC5CVGx2KqB--5" target="ye1H6EyIyC5CVGx2KqB--102" edge="1">
          <mxGeometry width="160" relative="1" as="geometry">
            <mxPoint x="3345.1267605633802" y="650" as="sourcePoint"/>
            <mxPoint x="3404.8732394366198" y="347" as="targetPoint"/>
          </mxGeometry>
        </mxCell>
        <mxCell id="ye1H6EyIyC5CVGx2KqB--113" value="" style="endArrow=open;endFill=1;endSize=12;html=1;" parent="1" source="ye1H6EyIyC5CVGx2KqB--5" target="ye1H6EyIyC5CVGx2KqB--104" edge="1">
          <mxGeometry width="160" relative="1" as="geometry">
            <mxPoint x="3344.155251141553" y="650" as="sourcePoint"/>
            <mxPoint x="3405.844748858448" y="264" as="targetPoint"/>
          </mxGeometry>
        </mxCell>
        <mxCell id="ye1H6EyIyC5CVGx2KqB--115" value="&amp;nbsp;" style="endArrow=open;endSize=12;dashed=1;html=1;" parent="1" source="ye1H6EyIyC5CVGx2KqB--5" target="ye1H6EyIyC5CVGx2KqB--106" edge="1">
          <mxGeometry x="0.25" y="50" width="160" relative="1" as="geometry">
            <mxPoint x="3540" y="630" as="sourcePoint"/>
            <mxPoint x="3660" y="596" as="targetPoint"/>
            <mxPoint as="offset"/>
          </mxGeometry>
        </mxCell>
        <mxCell id="ye1H6EyIyC5CVGx2KqB--116" value="&amp;nbsp;" style="text;html=1;align=center;verticalAlign=middle;resizable=0;points=[];;labelBackgroundColor=#ffffff;" parent="ye1H6EyIyC5CVGx2KqB--115" vertex="1" connectable="0">
          <mxGeometry x="0.1375" y="-3" relative="1" as="geometry">
            <mxPoint as="offset"/>
          </mxGeometry>
        </mxCell>
        <mxCell id="ye1H6EyIyC5CVGx2KqB--118" value="0...*" style="endArrow=open;html=1;endSize=12;startArrow=diamondThin;startSize=14;startFill=1;edgeStyle=orthogonalEdgeStyle;align=left;verticalAlign=bottom;" parent="1" source="ye1H6EyIyC5CVGx2KqB--5" target="ye1H6EyIyC5CVGx2KqB--108" edge="1">
          <mxGeometry x="-1" y="3" relative="1" as="geometry">
            <mxPoint x="2640" y="740" as="sourcePoint"/>
            <mxPoint x="2800" y="740" as="targetPoint"/>
          </mxGeometry>
        </mxCell>
        <mxCell id="ye1H6EyIyC5CVGx2KqB--120" value="" style="endArrow=open;html=1;endSize=12;startArrow=diamondThin;startSize=14;startFill=0;edgeStyle=orthogonalEdgeStyle;" parent="1" source="ye1H6EyIyC5CVGx2KqB--1" target="ye1H6EyIyC5CVGx2KqB--42" edge="1">
          <mxGeometry x="0.75" y="590" relative="1" as="geometry">
            <mxPoint x="1720" y="70" as="sourcePoint"/>
            <mxPoint x="1880" y="70" as="targetPoint"/>
            <mxPoint as="offset"/>
            <Array as="points">
              <mxPoint x="1960" y="70"/>
              <mxPoint x="2420" y="70"/>
            </Array>
          </mxGeometry>
        </mxCell>
        <mxCell id="ye1H6EyIyC5CVGx2KqB--121" value="&amp;nbsp;" style="resizable=0;html=1;align=left;verticalAlign=top;labelBackgroundColor=#ffffff;fontSize=10;" parent="ye1H6EyIyC5CVGx2KqB--120" connectable="0" vertex="1">
          <mxGeometry x="-1" relative="1" as="geometry"/>
        </mxCell>
        <mxCell id="ye1H6EyIyC5CVGx2KqB--122" value="1" style="resizable=0;html=1;align=right;verticalAlign=top;labelBackgroundColor=#ffffff;fontSize=10;" parent="ye1H6EyIyC5CVGx2KqB--120" connectable="0" vertex="1">
          <mxGeometry x="1" relative="1" as="geometry"/>
        </mxCell>
        <mxCell id="ye1H6EyIyC5CVGx2KqB--123" value="" style="endArrow=open;html=1;endSize=12;startArrow=diamondThin;startSize=14;startFill=0;edgeStyle=orthogonalEdgeStyle;" parent="1" source="ye1H6EyIyC5CVGx2KqB--1" target="ye1H6EyIyC5CVGx2KqB--5" edge="1">
          <mxGeometry x="0.75" y="590" relative="1" as="geometry">
            <mxPoint x="1900" y="125.88235294117658" as="sourcePoint"/>
            <mxPoint x="1580.5882352941176" y="200" as="targetPoint"/>
            <mxPoint as="offset"/>
            <Array as="points">
              <mxPoint x="1960" y="70"/>
              <mxPoint x="3670" y="70"/>
              <mxPoint x="3670" y="666"/>
            </Array>
          </mxGeometry>
        </mxCell>
        <mxCell id="ye1H6EyIyC5CVGx2KqB--124" value="0..n" style="resizable=0;html=1;align=left;verticalAlign=top;labelBackgroundColor=#ffffff;fontSize=10;" parent="ye1H6EyIyC5CVGx2KqB--123" connectable="0" vertex="1">
          <mxGeometry x="-1" relative="1" as="geometry"/>
        </mxCell>
        <mxCell id="ye1H6EyIyC5CVGx2KqB--125" value="1" style="resizable=0;html=1;align=right;verticalAlign=top;labelBackgroundColor=#ffffff;fontSize=10;" parent="ye1H6EyIyC5CVGx2KqB--123" connectable="0" vertex="1">
          <mxGeometry x="1" relative="1" as="geometry"/>
        </mxCell>
        <mxCell id="ye1H6EyIyC5CVGx2KqB--126" value="Graphics2D" style="swimlane;fontStyle=0;childLayout=stackLayout;horizontal=1;startSize=26;fillColor=none;horizontalStack=0;resizeParent=1;resizeParentMax=0;resizeLast=0;collapsible=1;marginBottom=0;" parent="1" vertex="1">
          <mxGeometry x="3115" y="432" width="140" height="52" as="geometry"/>
        </mxCell>
        <mxCell id="ye1H6EyIyC5CVGx2KqB--127" value="+ field: type" style="text;strokeColor=none;fillColor=none;align=left;verticalAlign=top;spacingLeft=4;spacingRight=4;overflow=hidden;rotatable=0;points=[[0,0.5],[1,0.5]];portConstraint=eastwest;" parent="ye1H6EyIyC5CVGx2KqB--126" vertex="1">
          <mxGeometry y="26" width="140" height="26" as="geometry"/>
        </mxCell>
        <mxCell id="ye1H6EyIyC5CVGx2KqB--128" value="" style="endArrow=open;endFill=1;endSize=12;html=1;" parent="1" source="ye1H6EyIyC5CVGx2KqB--36" target="ye1H6EyIyC5CVGx2KqB--46" edge="1">
          <mxGeometry width="160" relative="1" as="geometry">
            <mxPoint x="1740" y="740" as="sourcePoint"/>
            <mxPoint x="1900" y="740" as="targetPoint"/>
          </mxGeometry>
        </mxCell>
        <mxCell id="ye1H6EyIyC5CVGx2KqB--129" value="" style="endArrow=open;endSize=12;html=1;" parent="1" source="ye1H6EyIyC5CVGx2KqB--1" target="ye1H6EyIyC5CVGx2KqB--126" edge="1">
          <mxGeometry width="160" relative="1" as="geometry">
            <mxPoint x="1740" y="685.5" as="sourcePoint"/>
            <mxPoint x="1900" y="685.5" as="targetPoint"/>
          </mxGeometry>
        </mxCell>
        <mxCell id="ye1H6EyIyC5CVGx2KqB--131" value="" style="endArrow=open;endSize=12;dashed=1;html=1;" parent="1" source="ye1H6EyIyC5CVGx2KqB--1" target="ye1H6EyIyC5CVGx2KqB--46" edge="1">
          <mxGeometry width="160" relative="1" as="geometry">
            <mxPoint x="1941.4366197183103" y="152" as="sourcePoint"/>
            <mxPoint x="1247.1267605633802" y="468" as="targetPoint"/>
            <Array as="points">
              <mxPoint x="1910" y="260"/>
            </Array>
          </mxGeometry>
        </mxCell>
        <mxCell id="ye1H6EyIyC5CVGx2KqB--134" value="1" style="endArrow=open;html=1;endSize=12;startArrow=diamondThin;startSize=14;startFill=1;edgeStyle=orthogonalEdgeStyle;align=left;verticalAlign=bottom;" parent="1" source="ye1H6EyIyC5CVGx2KqB--36" target="ye1H6EyIyC5CVGx2KqB--38" edge="1">
          <mxGeometry x="-1" y="3" relative="1" as="geometry">
            <mxPoint x="1600" y="285.5" as="sourcePoint"/>
            <mxPoint x="1760" y="285.5" as="targetPoint"/>
            <Array as="points">
              <mxPoint x="1360" y="71"/>
              <mxPoint x="1360" y="241"/>
            </Array>
          </mxGeometry>
        </mxCell>
        <mxCell id="ye1H6EyIyC5CVGx2KqB--135" value="" style="endArrow=open;endFill=1;endSize=12;html=1;" parent="1" source="ye1H6EyIyC5CVGx2KqB--36" target="ye1H6EyIyC5CVGx2KqB--58" edge="1">
          <mxGeometry width="160" relative="1" as="geometry">
            <mxPoint x="1545" y="595" as="sourcePoint"/>
            <mxPoint x="1705" y="595" as="targetPoint"/>
          </mxGeometry>
        </mxCell>
        <mxCell id="ye1H6EyIyC5CVGx2KqB--137" value="" style="endArrow=open;endFill=1;endSize=12;html=1;" parent="1" source="ye1H6EyIyC5CVGx2KqB--36" target="ye1H6EyIyC5CVGx2KqB--56" edge="1">
          <mxGeometry width="160" relative="1" as="geometry">
            <mxPoint x="1690" y="376.2439024390251" as="sourcePoint"/>
            <mxPoint x="1420" y="415.75609756097583" as="targetPoint"/>
          </mxGeometry>
        </mxCell>
        <mxCell id="ye1H6EyIyC5CVGx2KqB--138" value="" style="endArrow=open;endFill=1;endSize=12;html=1;" parent="1" source="ye1H6EyIyC5CVGx2KqB--36" target="ye1H6EyIyC5CVGx2KqB--48" edge="1">
          <mxGeometry width="160" relative="1" as="geometry">
            <mxPoint x="1370" y="740" as="sourcePoint"/>
            <mxPoint x="1530" y="740" as="targetPoint"/>
          </mxGeometry>
        </mxCell>
        <mxCell id="ye1H6EyIyC5CVGx2KqB--139" value="" style="endArrow=open;endFill=1;endSize=12;html=1;" parent="1" source="ye1H6EyIyC5CVGx2KqB--36" target="ye1H6EyIyC5CVGx2KqB--44" edge="1">
          <mxGeometry width="160" relative="1" as="geometry">
            <mxPoint x="1550" y="469.5" as="sourcePoint"/>
            <mxPoint x="1710" y="469.5" as="targetPoint"/>
          </mxGeometry>
        </mxCell>
        <mxCell id="ye1H6EyIyC5CVGx2KqB--140" value="" style="endArrow=open;endFill=1;endSize=12;html=1;" parent="1" source="ye1H6EyIyC5CVGx2KqB--36" target="ye1H6EyIyC5CVGx2KqB--50" edge="1">
          <mxGeometry width="160" relative="1" as="geometry">
            <mxPoint x="1780.5263157894742" y="392" as="sourcePoint"/>
            <mxPoint x="1799.4736842105262" y="415.9999999999991" as="targetPoint"/>
          </mxGeometry>
        </mxCell>
        <mxCell id="ye1H6EyIyC5CVGx2KqB--144" value="" style="endArrow=open;endFill=1;endSize=12;html=1;strokeWidth=1;" parent="1" source="ye1H6EyIyC5CVGx2KqB--38" target="ye1H6EyIyC5CVGx2KqB--5" edge="1">
          <mxGeometry width="160" relative="1" as="geometry">
            <mxPoint x="1500" y="495.5" as="sourcePoint"/>
            <mxPoint x="1660" y="495.5" as="targetPoint"/>
          </mxGeometry>
        </mxCell>
        <mxCell id="ye1H6EyIyC5CVGx2KqB--150" value="1" style="endArrow=open;html=1;endSize=12;startArrow=diamondThin;startSize=14;startFill=0;edgeStyle=orthogonalEdgeStyle;align=left;verticalAlign=bottom;strokeWidth=1;" parent="1" source="ye1H6EyIyC5CVGx2KqB--42" target="ye1H6EyIyC5CVGx2KqB--66" edge="1">
          <mxGeometry x="-1" y="3" relative="1" as="geometry">
            <mxPoint x="2050" y="830" as="sourcePoint"/>
            <mxPoint x="2210" y="830" as="targetPoint"/>
          </mxGeometry>
        </mxCell>
        <mxCell id="ye1H6EyIyC5CVGx2KqB--152" value="1" style="endArrow=open;html=1;endSize=12;startArrow=diamondThin;startSize=14;startFill=0;edgeStyle=orthogonalEdgeStyle;align=left;verticalAlign=bottom;strokeWidth=1;" parent="1" source="L9FAodCtd-xEPd-ugHDf-16" target="ye1H6EyIyC5CVGx2KqB--108" edge="1">
          <mxGeometry x="-1" y="3" relative="1" as="geometry">
            <mxPoint x="2500" y="745.8823529411766" as="sourcePoint"/>
            <mxPoint x="2790" y="520" as="targetPoint"/>
          </mxGeometry>
        </mxCell>
        <mxCell id="ye1H6EyIyC5CVGx2KqB--153" value="1" style="endArrow=open;html=1;endSize=12;startArrow=none;startSize=14;startFill=0;edgeStyle=orthogonalEdgeStyle;align=left;verticalAlign=bottom;strokeWidth=1;" parent="1" source="ye1H6EyIyC5CVGx2KqB--42" target="ye1H6EyIyC5CVGx2KqB--1" edge="1">
          <mxGeometry x="-1" y="3" relative="1" as="geometry">
            <mxPoint x="2020" y="790" as="sourcePoint"/>
            <mxPoint x="2010" y="28.235294117647058" as="targetPoint"/>
          </mxGeometry>
        </mxCell>
        <mxCell id="ye1H6EyIyC5CVGx2KqB--155" value="1" style="endArrow=open;html=1;endSize=12;startArrow=none;startSize=14;startFill=0;edgeStyle=orthogonalEdgeStyle;align=left;verticalAlign=bottom;strokeWidth=1;" parent="1" source="ye1H6EyIyC5CVGx2KqB--42" target="ye1H6EyIyC5CVGx2KqB--52" edge="1">
          <mxGeometry x="-1" y="3" relative="1" as="geometry">
            <mxPoint x="2360" y="746" as="sourcePoint"/>
            <mxPoint x="1970" y="152" as="targetPoint"/>
          </mxGeometry>
        </mxCell>
        <mxCell id="ye1H6EyIyC5CVGx2KqB--156" value="1" style="endArrow=open;html=1;endSize=12;startArrow=none;startSize=14;startFill=0;edgeStyle=orthogonalEdgeStyle;align=left;verticalAlign=bottom;strokeWidth=1;" parent="1" source="ye1H6EyIyC5CVGx2KqB--42" target="ye1H6EyIyC5CVGx2KqB--62" edge="1">
          <mxGeometry x="-1" y="3" relative="1" as="geometry">
            <mxPoint x="2360" y="746" as="sourcePoint"/>
            <mxPoint x="1400" y="263" as="targetPoint"/>
          </mxGeometry>
        </mxCell>
        <mxCell id="ye1H6EyIyC5CVGx2KqB--157" value="1" style="endArrow=open;html=1;endSize=12;startArrow=none;startSize=14;startFill=0;edgeStyle=orthogonalEdgeStyle;align=left;verticalAlign=bottom;strokeWidth=1;" parent="1" source="ye1H6EyIyC5CVGx2KqB--42" target="ye1H6EyIyC5CVGx2KqB--36" edge="1">
          <mxGeometry x="-1" y="3" relative="1" as="geometry">
            <mxPoint x="2360" y="746" as="sourcePoint"/>
            <mxPoint x="1400" y="263" as="targetPoint"/>
          </mxGeometry>
        </mxCell>
        <mxCell id="ye1H6EyIyC5CVGx2KqB--158" value="1" style="endArrow=open;html=1;endSize=12;startArrow=none;startSize=14;startFill=0;edgeStyle=orthogonalEdgeStyle;align=left;verticalAlign=bottom;strokeWidth=1;" parent="1" source="ye1H6EyIyC5CVGx2KqB--42" target="ye1H6EyIyC5CVGx2KqB--54" edge="1">
          <mxGeometry x="-1" y="3" relative="1" as="geometry">
            <mxPoint x="2360" y="746" as="sourcePoint"/>
            <mxPoint x="1760" y="392" as="targetPoint"/>
          </mxGeometry>
        </mxCell>
        <mxCell id="ye1H6EyIyC5CVGx2KqB--159" value="1" style="endArrow=open;html=1;endSize=12;startArrow=none;startSize=14;startFill=0;edgeStyle=orthogonalEdgeStyle;align=left;verticalAlign=bottom;strokeWidth=1;" parent="1" source="ye1H6EyIyC5CVGx2KqB--42" target="ye1H6EyIyC5CVGx2KqB--48" edge="1">
          <mxGeometry x="-1" y="3" relative="1" as="geometry">
            <mxPoint x="2370" y="756" as="sourcePoint"/>
            <mxPoint x="1770" y="402" as="targetPoint"/>
          </mxGeometry>
        </mxCell>
        <mxCell id="ye1H6EyIyC5CVGx2KqB--160" value="1" style="endArrow=open;html=1;endSize=12;startArrow=none;startSize=14;startFill=0;edgeStyle=orthogonalEdgeStyle;align=left;verticalAlign=bottom;strokeWidth=1;" parent="1" source="ye1H6EyIyC5CVGx2KqB--42" target="ye1H6EyIyC5CVGx2KqB--68" edge="1">
          <mxGeometry x="-1" y="3" relative="1" as="geometry">
            <mxPoint x="2360" y="746" as="sourcePoint"/>
            <mxPoint x="2210" y="632" as="targetPoint"/>
            <Array as="points">
              <mxPoint x="2050" y="736"/>
            </Array>
          </mxGeometry>
        </mxCell>
        <mxCell id="ye1H6EyIyC5CVGx2KqB--161" value="1" style="endArrow=open;html=1;endSize=12;startArrow=none;startSize=14;startFill=0;edgeStyle=orthogonalEdgeStyle;align=left;verticalAlign=bottom;strokeWidth=1;" parent="1" source="ye1H6EyIyC5CVGx2KqB--42" target="ye1H6EyIyC5CVGx2KqB--60" edge="1">
          <mxGeometry x="-1" y="3" relative="1" as="geometry">
            <mxPoint x="2360" y="746" as="sourcePoint"/>
            <mxPoint x="2210" y="632" as="targetPoint"/>
          </mxGeometry>
        </mxCell>
        <mxCell id="ye1H6EyIyC5CVGx2KqB--162" value="1" style="endArrow=open;html=1;endSize=12;startArrow=none;startSize=14;startFill=0;edgeStyle=orthogonalEdgeStyle;align=left;verticalAlign=bottom;strokeWidth=1;" parent="1" source="ye1H6EyIyC5CVGx2KqB--42" target="ye1H6EyIyC5CVGx2KqB--38" edge="1">
          <mxGeometry x="-1" y="3" relative="1" as="geometry">
            <mxPoint x="2360" y="746" as="sourcePoint"/>
            <mxPoint x="2210" y="632" as="targetPoint"/>
          </mxGeometry>
        </mxCell>
        <mxCell id="ye1H6EyIyC5CVGx2KqB--163" value="1" style="endArrow=open;html=1;endSize=12;startArrow=none;startSize=14;startFill=0;edgeStyle=orthogonalEdgeStyle;align=left;verticalAlign=bottom;strokeWidth=1;" parent="1" source="ye1H6EyIyC5CVGx2KqB--42" target="ye1H6EyIyC5CVGx2KqB--56" edge="1">
          <mxGeometry x="-1" y="3" relative="1" as="geometry">
            <mxPoint x="2360" y="746" as="sourcePoint"/>
            <mxPoint x="2210" y="632" as="targetPoint"/>
            <Array as="points">
              <mxPoint x="2440" y="610"/>
              <mxPoint x="2480" y="610"/>
            </Array>
          </mxGeometry>
        </mxCell>
        <mxCell id="ye1H6EyIyC5CVGx2KqB--164" value="1" style="endArrow=open;html=1;endSize=12;startArrow=none;startSize=14;startFill=0;edgeStyle=orthogonalEdgeStyle;align=left;verticalAlign=bottom;strokeWidth=1;" parent="1" source="ye1H6EyIyC5CVGx2KqB--42" target="ye1H6EyIyC5CVGx2KqB--58" edge="1">
          <mxGeometry x="-1" y="3" relative="1" as="geometry">
            <mxPoint x="2370" y="756" as="sourcePoint"/>
            <mxPoint x="2220" y="642" as="targetPoint"/>
          </mxGeometry>
        </mxCell>
        <mxCell id="ye1H6EyIyC5CVGx2KqB--167" value="1" style="endArrow=open;html=1;endSize=12;startArrow=diamondThin;startSize=14;startFill=0;edgeStyle=orthogonalEdgeStyle;align=left;verticalAlign=bottom;strokeWidth=1;" parent="1" source="ye1H6EyIyC5CVGx2KqB--44" target="ye1H6EyIyC5CVGx2KqB--48" edge="1">
          <mxGeometry x="-1" y="3" relative="1" as="geometry">
            <mxPoint x="1330" y="920" as="sourcePoint"/>
            <mxPoint x="1490" y="920" as="targetPoint"/>
          </mxGeometry>
        </mxCell>
        <mxCell id="ye1H6EyIyC5CVGx2KqB--168" value="1" style="endArrow=open;html=1;endSize=12;startArrow=diamondThin;startSize=14;startFill=0;edgeStyle=orthogonalEdgeStyle;align=left;verticalAlign=bottom;strokeWidth=1;" parent="1" source="ye1H6EyIyC5CVGx2KqB--44" target="ye1H6EyIyC5CVGx2KqB--42" edge="1">
          <mxGeometry x="-1" y="3" relative="1" as="geometry">
            <mxPoint x="1850" y="960" as="sourcePoint"/>
            <mxPoint x="2320" y="476" as="targetPoint"/>
          </mxGeometry>
        </mxCell>
        <mxCell id="ye1H6EyIyC5CVGx2KqB--169" value="1" style="endArrow=open;html=1;endSize=12;startArrow=diamondThin;startSize=14;startFill=0;edgeStyle=orthogonalEdgeStyle;align=left;verticalAlign=bottom;strokeWidth=1;" parent="1" source="ye1H6EyIyC5CVGx2KqB--44" target="ye1H6EyIyC5CVGx2KqB--1" edge="1">
          <mxGeometry x="-1" y="3" relative="1" as="geometry">
            <mxPoint x="1620" y="920" as="sourcePoint"/>
            <mxPoint x="2530" y="816" as="targetPoint"/>
            <Array as="points">
              <mxPoint x="1870" y="866"/>
              <mxPoint x="1870" y="116"/>
            </Array>
          </mxGeometry>
        </mxCell>
        <mxCell id="ye1H6EyIyC5CVGx2KqB--170" value="1" style="endArrow=open;html=1;endSize=12;startArrow=diamondThin;startSize=14;startFill=0;edgeStyle=orthogonalEdgeStyle;align=left;verticalAlign=bottom;strokeWidth=1;" parent="1" source="ye1H6EyIyC5CVGx2KqB--46" target="ye1H6EyIyC5CVGx2KqB--1" edge="1">
          <mxGeometry x="-1" y="3" relative="1" as="geometry">
            <mxPoint x="1710" y="463" as="sourcePoint"/>
            <mxPoint x="1870" y="463" as="targetPoint"/>
          </mxGeometry>
        </mxCell>
        <mxCell id="ye1H6EyIyC5CVGx2KqB--171" value="" style="endArrow=open;endFill=1;endSize=12;html=1;strokeWidth=1;" parent="1" source="ye1H6EyIyC5CVGx2KqB--46" target="ye1H6EyIyC5CVGx2KqB--56" edge="1">
          <mxGeometry width="160" relative="1" as="geometry">
            <mxPoint x="1630" y="600" as="sourcePoint"/>
            <mxPoint x="2290" y="474" as="targetPoint"/>
          </mxGeometry>
        </mxCell>
        <mxCell id="ye1H6EyIyC5CVGx2KqB--172" value="" style="endArrow=open;endFill=1;endSize=12;html=1;strokeWidth=1;" parent="1" source="ye1H6EyIyC5CVGx2KqB--46" target="ye1H6EyIyC5CVGx2KqB--58" edge="1">
          <mxGeometry width="160" relative="1" as="geometry">
            <mxPoint x="1890" y="447.4328358208959" as="sourcePoint"/>
            <mxPoint x="2420" y="488.5671641791041" as="targetPoint"/>
          </mxGeometry>
        </mxCell>
        <mxCell id="ye1H6EyIyC5CVGx2KqB--173" value="" style="endArrow=open;endSize=12;dashed=1;html=1;strokeWidth=1;" parent="1" source="ye1H6EyIyC5CVGx2KqB--46" target="ye1H6EyIyC5CVGx2KqB--36" edge="1">
          <mxGeometry width="160" relative="1" as="geometry">
            <mxPoint x="1720" y="596" as="sourcePoint"/>
            <mxPoint x="1880" y="596" as="targetPoint"/>
            <Array as="points">
              <mxPoint x="1789" y="390"/>
            </Array>
          </mxGeometry>
        </mxCell>
        <mxCell id="ye1H6EyIyC5CVGx2KqB--174" value="" style="endArrow=block;startArrow=block;endFill=1;startFill=1;html=1;strokeWidth=1;" parent="1" source="ye1H6EyIyC5CVGx2KqB--46" target="ye1H6EyIyC5CVGx2KqB--48" edge="1">
          <mxGeometry width="160" relative="1" as="geometry">
            <mxPoint x="1740" y="543" as="sourcePoint"/>
            <mxPoint x="1900" y="543" as="targetPoint"/>
          </mxGeometry>
        </mxCell>
        <mxCell id="ye1H6EyIyC5CVGx2KqB--176" value="" style="endArrow=open;endFill=1;endSize=12;html=1;" parent="1" source="ye1H6EyIyC5CVGx2KqB--48" target="ye1H6EyIyC5CVGx2KqB--44" edge="1">
          <mxGeometry width="160" relative="1" as="geometry">
            <mxPoint x="1744.1960784313724" y="392" as="sourcePoint"/>
            <mxPoint x="1465.8039215686276" y="850" as="targetPoint"/>
          </mxGeometry>
        </mxCell>
        <mxCell id="ye1H6EyIyC5CVGx2KqB--177" value="" style="endArrow=open;endFill=1;endSize=12;html=1;strokeWidth=1;" parent="1" source="ye1H6EyIyC5CVGx2KqB--48" target="ye1H6EyIyC5CVGx2KqB--58" edge="1">
          <mxGeometry width="160" relative="1" as="geometry">
            <mxPoint x="1750" y="439.61702127659555" as="sourcePoint"/>
            <mxPoint x="1420" y="428.38297872340445" as="targetPoint"/>
          </mxGeometry>
        </mxCell>
        <mxCell id="ye1H6EyIyC5CVGx2KqB--178" value="" style="endArrow=open;endFill=1;endSize=12;html=1;strokeWidth=1;" parent="1" source="ye1H6EyIyC5CVGx2KqB--48" target="ye1H6EyIyC5CVGx2KqB--56" edge="1">
          <mxGeometry width="160" relative="1" as="geometry">
            <mxPoint x="1920" y="372.5625" as="sourcePoint"/>
            <mxPoint x="1420" y="419.4375" as="targetPoint"/>
          </mxGeometry>
        </mxCell>
        <mxCell id="ye1H6EyIyC5CVGx2KqB--179" value="" style="endArrow=open;endSize=12;dashed=1;html=1;strokeWidth=1;" parent="1" source="ye1H6EyIyC5CVGx2KqB--52" target="ye1H6EyIyC5CVGx2KqB--38" edge="1">
          <mxGeometry width="160" relative="1" as="geometry">
            <mxPoint x="1770" y="691.5" as="sourcePoint"/>
            <mxPoint x="1930" y="691.5" as="targetPoint"/>
          </mxGeometry>
        </mxCell>
        <mxCell id="ye1H6EyIyC5CVGx2KqB--180" value="" style="endArrow=open;endSize=12;dashed=1;html=1;strokeWidth=1;" parent="1" source="ye1H6EyIyC5CVGx2KqB--58" edge="1" target="ye1H6EyIyC5CVGx2KqB--56">
          <mxGeometry x="0.0199" y="1" width="160" relative="1" as="geometry">
            <mxPoint x="1450" y="469.5" as="sourcePoint"/>
            <mxPoint x="2410" y="480" as="targetPoint"/>
            <mxPoint as="offset"/>
          </mxGeometry>
        </mxCell>
        <mxCell id="L9FAodCtd-xEPd-ugHDf-1" value="" style="shape=folder;fontStyle=1;spacingTop=10;tabWidth=128;tabHeight=26;tabPosition=left;html=1;" parent="1" vertex="1">
          <mxGeometry x="2790" y="107" width="160" height="120" as="geometry"/>
        </mxCell>
        <mxCell id="L9FAodCtd-xEPd-ugHDf-2" value="javax.sound.sampled" style="text;html=1;align=center;verticalAlign=middle;resizable=0;points=[];;autosize=1;" parent="1" vertex="1">
          <mxGeometry x="2790" y="108" width="130" height="20" as="geometry"/>
        </mxCell>
        <mxCell id="L9FAodCtd-xEPd-ugHDf-7" value="" style="endArrow=open;endFill=1;endSize=12;html=1;" parent="1" source="ye1H6EyIyC5CVGx2KqB--56" target="L9FAodCtd-xEPd-ugHDf-1" edge="1">
          <mxGeometry width="160" relative="1" as="geometry">
            <mxPoint x="2535" y="363.5" as="sourcePoint"/>
            <mxPoint x="2695" y="363.5" as="targetPoint"/>
            <Array as="points"/>
          </mxGeometry>
        </mxCell>
        <mxCell id="L9FAodCtd-xEPd-ugHDf-9" value="" style="endArrow=block;startArrow=block;endFill=1;startFill=1;html=1;" parent="1" source="ye1H6EyIyC5CVGx2KqB--60" target="ye1H6EyIyC5CVGx2KqB--1" edge="1">
          <mxGeometry width="160" relative="1" as="geometry">
            <mxPoint x="1540" y="246" as="sourcePoint"/>
            <mxPoint x="1700" y="246" as="targetPoint"/>
          </mxGeometry>
        </mxCell>
        <mxCell id="L9FAodCtd-xEPd-ugHDf-10" value="" style="endArrow=open;endFill=1;endSize=12;html=1;" parent="1" source="ye1H6EyIyC5CVGx2KqB--62" target="ye1H6EyIyC5CVGx2KqB--46" edge="1">
          <mxGeometry width="160" relative="1" as="geometry">
            <mxPoint x="2220" y="521.5" as="sourcePoint"/>
            <mxPoint x="2380" y="521.5" as="targetPoint"/>
          </mxGeometry>
        </mxCell>
        <mxCell id="L9FAodCtd-xEPd-ugHDf-11" value="" style="endArrow=open;endFill=1;endSize=12;html=1;dashed=1;" parent="1" source="ye1H6EyIyC5CVGx2KqB--62" target="ye1H6EyIyC5CVGx2KqB--52" edge="1">
          <mxGeometry width="160" relative="1" as="geometry">
            <mxPoint x="2148.1707317073174" y="580" as="sourcePoint"/>
            <mxPoint x="1881.829268292683" y="468" as="targetPoint"/>
          </mxGeometry>
        </mxCell>
        <mxCell id="L9FAodCtd-xEPd-ugHDf-12" value="" style="endArrow=open;endSize=12;dashed=1;html=1;" parent="1" source="ye1H6EyIyC5CVGx2KqB--54" target="ye1H6EyIyC5CVGx2KqB--52" edge="1">
          <mxGeometry width="160" relative="1" as="geometry">
            <mxPoint x="1490" y="539.5" as="sourcePoint"/>
            <mxPoint x="1650" y="539.5" as="targetPoint"/>
          </mxGeometry>
        </mxCell>
        <mxCell id="L9FAodCtd-xEPd-ugHDf-13" value="" style="endArrow=open;endSize=12;dashed=1;html=1;" parent="1" source="ye1H6EyIyC5CVGx2KqB--68" target="ye1H6EyIyC5CVGx2KqB--52" edge="1">
          <mxGeometry width="160" relative="1" as="geometry">
            <mxPoint x="1906.5349544072951" y="540" as="sourcePoint"/>
            <mxPoint x="1443.465045592705" y="263" as="targetPoint"/>
          </mxGeometry>
        </mxCell>
        <mxCell id="L9FAodCtd-xEPd-ugHDf-18" value="BufferStrategy" style="swimlane;fontStyle=0;childLayout=stackLayout;horizontal=1;startSize=26;fillColor=#f8cecc;horizontalStack=0;resizeParent=1;resizeParentMax=0;resizeLast=0;collapsible=1;marginBottom=0;strokeColor=#b85450;" parent="1" vertex="1">
          <mxGeometry x="3395" y="478" width="140" height="52" as="geometry"/>
        </mxCell>
        <mxCell id="L9FAodCtd-xEPd-ugHDf-19" value="+ field: type" style="text;strokeColor=none;fillColor=none;align=left;verticalAlign=top;spacingLeft=4;spacingRight=4;overflow=hidden;rotatable=0;points=[[0,0.5],[1,0.5]];portConstraint=eastwest;" parent="L9FAodCtd-xEPd-ugHDf-18" vertex="1">
          <mxGeometry y="26" width="140" height="26" as="geometry"/>
        </mxCell>
        <mxCell id="L9FAodCtd-xEPd-ugHDf-14" value="AffineTransform" style="swimlane;fontStyle=0;childLayout=stackLayout;horizontal=1;startSize=26;fillColor=none;horizontalStack=0;resizeParent=1;resizeParentMax=0;resizeLast=0;collapsible=1;marginBottom=0;" parent="1" vertex="1">
          <mxGeometry x="3290" y="410.5" width="140" height="52" as="geometry"/>
        </mxCell>
        <mxCell id="L9FAodCtd-xEPd-ugHDf-15" value="+ field: type" style="text;strokeColor=none;fillColor=none;align=left;verticalAlign=top;spacingLeft=4;spacingRight=4;overflow=hidden;rotatable=0;points=[[0,0.5],[1,0.5]];portConstraint=eastwest;" parent="L9FAodCtd-xEPd-ugHDf-14" vertex="1">
          <mxGeometry y="26" width="140" height="26" as="geometry"/>
        </mxCell>
        <mxCell id="L9FAodCtd-xEPd-ugHDf-20" value="" style="endArrow=open;endFill=1;endSize=12;html=1;" parent="1" source="ye1H6EyIyC5CVGx2KqB--5" target="L9FAodCtd-xEPd-ugHDf-14" edge="1">
          <mxGeometry width="160" relative="1" as="geometry">
            <mxPoint x="3334.4010416666665" y="640" as="sourcePoint"/>
            <mxPoint x="3390.598958333333" y="308" as="targetPoint"/>
          </mxGeometry>
        </mxCell>
        <mxCell id="L9FAodCtd-xEPd-ugHDf-16" value="VolatileImage" style="swimlane;fontStyle=0;childLayout=stackLayout;horizontal=1;startSize=26;fillColor=#f8cecc;horizontalStack=0;resizeParent=1;resizeParentMax=0;resizeLast=0;collapsible=1;marginBottom=0;strokeColor=#b85450;" parent="1" vertex="1">
          <mxGeometry x="3485" y="410.5" width="140" height="52" as="geometry"/>
        </mxCell>
        <mxCell id="L9FAodCtd-xEPd-ugHDf-17" value="+ field: type" style="text;strokeColor=none;fillColor=none;align=left;verticalAlign=top;spacingLeft=4;spacingRight=4;overflow=hidden;rotatable=0;points=[[0,0.5],[1,0.5]];portConstraint=eastwest;" parent="L9FAodCtd-xEPd-ugHDf-16" vertex="1">
          <mxGeometry y="26" width="140" height="26" as="geometry"/>
        </mxCell>
        <mxCell id="L9FAodCtd-xEPd-ugHDf-21" value="1" style="endArrow=open;html=1;endSize=12;startArrow=diamondThin;startSize=14;startFill=0;edgeStyle=orthogonalEdgeStyle;align=left;verticalAlign=bottom;strokeWidth=1;" parent="1" source="ye1H6EyIyC5CVGx2KqB--42" target="L9FAodCtd-xEPd-ugHDf-16" edge="1">
          <mxGeometry x="-1" y="3" relative="1" as="geometry">
            <mxPoint x="2490" y="736.166666666667" as="sourcePoint"/>
            <mxPoint x="3554.666666666667" y="225" as="targetPoint"/>
          </mxGeometry>
        </mxCell>
        <mxCell id="L9FAodCtd-xEPd-ugHDf-22" value="" style="endArrow=open;endFill=1;endSize=12;html=1;" parent="1" source="ye1H6EyIyC5CVGx2KqB--66" target="L9FAodCtd-xEPd-ugHDf-14" edge="1">
          <mxGeometry width="160" relative="1" as="geometry">
            <mxPoint x="2515.668789808917" y="468" as="sourcePoint"/>
            <mxPoint x="2740.764331210191" y="240" as="targetPoint"/>
          </mxGeometry>
        </mxCell>
        <mxCell id="L9FAodCtd-xEPd-ugHDf-23" value="" style="endArrow=open;endFill=1;endSize=12;html=1;" parent="1" source="ye1H6EyIyC5CVGx2KqB--66" target="L9FAodCtd-xEPd-ugHDf-16" edge="1">
          <mxGeometry width="160" relative="1" as="geometry">
            <mxPoint x="2860" y="488.2672413793098" as="sourcePoint"/>
            <mxPoint x="3300" y="452.2327586206902" as="targetPoint"/>
          </mxGeometry>
        </mxCell>
        <mxCell id="L9FAodCtd-xEPd-ugHDf-24" value="" style="endArrow=open;endFill=1;endSize=12;html=1;" parent="1" source="ye1H6EyIyC5CVGx2KqB--66" target="L9FAodCtd-xEPd-ugHDf-18" edge="1">
          <mxGeometry width="160" relative="1" as="geometry">
            <mxPoint x="2860" y="489.7096774193551" as="sourcePoint"/>
            <mxPoint x="3495" y="450.7903225806449" as="targetPoint"/>
          </mxGeometry>
        </mxCell>
        <mxCell id="L9FAodCtd-xEPd-ugHDf-25" value="Röda saker ligger&lt;br&gt;samma paket &lt;br&gt;&quot;awt.image&quot;" style="html=1;fillColor=#f8cecc;strokeColor=#b85450;" parent="1" vertex="1">
          <mxGeometry x="3720" y="320" width="110" height="50" as="geometry"/>
        </mxCell>
        <mxCell id="L9FAodCtd-xEPd-ugHDf-26" value="Thread" style="swimlane;fontStyle=2;childLayout=stackLayout;horizontal=1;startSize=26;fillColor=none;horizontalStack=0;resizeParent=1;resizeParentMax=0;resizeLast=0;collapsible=1;marginBottom=0;" parent="1" vertex="1">
          <mxGeometry x="2610" y="128" width="90" height="52" as="geometry"/>
        </mxCell>
        <mxCell id="L9FAodCtd-xEPd-ugHDf-27" value="+ field: type" style="text;strokeColor=none;fillColor=none;align=left;verticalAlign=top;spacingLeft=4;spacingRight=4;overflow=hidden;rotatable=0;points=[[0,0.5],[1,0.5]];portConstraint=eastwest;" parent="L9FAodCtd-xEPd-ugHDf-26" vertex="1">
          <mxGeometry y="26" width="90" height="26" as="geometry"/>
        </mxCell>
        <mxCell id="L9FAodCtd-xEPd-ugHDf-29" value="1" style="endArrow=open;html=1;endSize=12;startArrow=diamondThin;startSize=14;startFill=1;edgeStyle=orthogonalEdgeStyle;align=left;verticalAlign=bottom;dashed=1;" parent="1" source="ye1H6EyIyC5CVGx2KqB--66" target="L9FAodCtd-xEPd-ugHDf-26" edge="1">
          <mxGeometry x="-1" y="3" relative="1" as="geometry">
            <mxPoint x="2790" y="468.62706801470586" as="sourcePoint"/>
            <mxPoint x="2670" y="202.35294117647058" as="targetPoint"/>
          </mxGeometry>
        </mxCell>
        <mxCell id="L9FAodCtd-xEPd-ugHDf-30" value="" style="endArrow=open;html=1;endSize=12;startArrow=diamondThin;startSize=14;startFill=0;edgeStyle=orthogonalEdgeStyle;" parent="1" source="ye1H6EyIyC5CVGx2KqB--66" target="ye1H6EyIyC5CVGx2KqB--5" edge="1">
          <mxGeometry x="0.75" y="590" relative="1" as="geometry">
            <mxPoint x="1970" y="99.99999999999909" as="sourcePoint"/>
            <mxPoint x="3410" y="676.3529411764712" as="targetPoint"/>
            <mxPoint as="offset"/>
            <Array as="points">
              <mxPoint x="2760" y="677"/>
            </Array>
          </mxGeometry>
        </mxCell>
        <mxCell id="L9FAodCtd-xEPd-ugHDf-31" value="0..n" style="resizable=0;html=1;align=left;verticalAlign=top;labelBackgroundColor=#ffffff;fontSize=10;" parent="L9FAodCtd-xEPd-ugHDf-30" connectable="0" vertex="1">
          <mxGeometry x="-1" relative="1" as="geometry"/>
        </mxCell>
        <mxCell id="L9FAodCtd-xEPd-ugHDf-32" value="1" style="resizable=0;html=1;align=right;verticalAlign=top;labelBackgroundColor=#ffffff;fontSize=10;" parent="L9FAodCtd-xEPd-ugHDf-30" connectable="0" vertex="1">
          <mxGeometry x="1" relative="1" as="geometry"/>
        </mxCell>
        <mxCell id="L9FAodCtd-xEPd-ugHDf-33" value="1" style="endArrow=open;html=1;endSize=12;startArrow=diamondThin;startSize=14;startFill=0;edgeStyle=orthogonalEdgeStyle;align=left;verticalAlign=bottom;strokeWidth=1;" parent="1" source="ye1H6EyIyC5CVGx2KqB--66" target="ye1H6EyIyC5CVGx2KqB--42" edge="1">
          <mxGeometry x="-1" y="3" relative="1" as="geometry">
            <mxPoint x="2500" y="745.7647058823532" as="sourcePoint"/>
            <mxPoint x="2770" y="468" as="targetPoint"/>
            <Array as="points">
              <mxPoint x="2760" y="640"/>
              <mxPoint x="2480" y="640"/>
            </Array>
          </mxGeometry>
        </mxCell>
        <mxCell id="L9FAodCtd-xEPd-ugHDf-34" value="1" style="endArrow=open;html=1;endSize=12;startArrow=none;startSize=14;startFill=0;edgeStyle=orthogonalEdgeStyle;align=left;verticalAlign=bottom;strokeWidth=1;" parent="1" source="ye1H6EyIyC5CVGx2KqB--66" target="ye1H6EyIyC5CVGx2KqB--1" edge="1">
          <mxGeometry x="-1" y="3" relative="1" as="geometry">
            <mxPoint x="2360" y="745.7647058823532" as="sourcePoint"/>
            <mxPoint x="2140" y="95.88235294117646" as="targetPoint"/>
            <Array as="points">
              <mxPoint x="2760" y="330"/>
              <mxPoint x="2371" y="330"/>
              <mxPoint x="2371" y="116"/>
            </Array>
          </mxGeometry>
        </mxCell>
        <mxCell id="L9FAodCtd-xEPd-ugHDf-37" value="" style="endArrow=open;endFill=1;endSize=12;html=1;" parent="1" source="ye1H6EyIyC5CVGx2KqB--66" target="ye1H6EyIyC5CVGx2KqB--126" edge="1">
          <mxGeometry width="160" relative="1" as="geometry">
            <mxPoint x="2840" y="449.14893617021335" as="sourcePoint"/>
            <mxPoint x="2960" y="490" as="targetPoint"/>
          </mxGeometry>
        </mxCell>
        <mxCell id="L9FAodCtd-xEPd-ugHDf-38" value="" style="endArrow=open;endFill=1;endSize=12;html=1;" parent="1" source="ye1H6EyIyC5CVGx2KqB--66" target="ye1H6EyIyC5CVGx2KqB--56" edge="1">
          <mxGeometry width="160" relative="1" as="geometry">
            <mxPoint x="2521.98738170347" y="468" as="sourcePoint"/>
            <mxPoint x="2806.1829652996844" y="237" as="targetPoint"/>
            <Array as="points"/>
          </mxGeometry>
        </mxCell>
        <mxCell id="L9FAodCtd-xEPd-ugHDf-39" value="" style="endArrow=open;endFill=1;endSize=12;html=1;" parent="1" source="ye1H6EyIyC5CVGx2KqB--66" target="ye1H6EyIyC5CVGx2KqB--58" edge="1">
          <mxGeometry width="160" relative="1" as="geometry">
            <mxPoint x="2700" y="455" as="sourcePoint"/>
            <mxPoint x="2560" y="481" as="targetPoint"/>
            <Array as="points"/>
          </mxGeometry>
        </mxCell>
      </root>
    </mxGraphModel>
  </diagram>
</mxfile>
